<mxfile host="Electron" modified="2023-07-21T12:20:07.690Z" agent="Mozilla/5.0 (Macintosh; Intel Mac OS X 10_15_7) AppleWebKit/537.36 (KHTML, like Gecko) draw.io/21.6.1 Chrome/112.0.5615.204 Electron/24.6.1 Safari/537.36" etag="FsNyDyOkOG2NpPjfq7yi" version="21.6.1" type="device" pages="7">
  <diagram name="industrial-use-case" id="-5eUznXh3xwyPbRh5421">
    <mxGraphModel dx="1026" dy="772" grid="1" gridSize="10" guides="1" tooltips="1" connect="1" arrows="1" fold="1" page="1" pageScale="1" pageWidth="1100" pageHeight="850" math="0" shadow="0">
      <root>
        <mxCell id="0" />
        <mxCell id="1" parent="0" />
        <mxCell id="XJKZSx9Rj0ejB5qCwQDt-14" style="edgeStyle=none;shape=connector;rounded=1;orthogonalLoop=1;jettySize=auto;html=1;entryX=0.5;entryY=0;entryDx=0;entryDy=0;labelBackgroundColor=default;strokeColor=#182E3E;fontFamily=Helvetica;fontSize=11;fontColor=#1A1A1A;startArrow=classic;startFill=1;endArrow=classic;" parent="1" source="XJKZSx9Rj0ejB5qCwQDt-11" target="XJKZSx9Rj0ejB5qCwQDt-12" edge="1">
          <mxGeometry relative="1" as="geometry" />
        </mxCell>
        <mxCell id="XJKZSx9Rj0ejB5qCwQDt-11" value="Team of Experts" style="rounded=1;whiteSpace=wrap;html=1;fontFamily=Helvetica;fontSize=11;fillColor=#eeeeee;strokeColor=#36393d;verticalAlign=top;" parent="1" vertex="1">
          <mxGeometry x="525" y="305" width="280" height="240" as="geometry" />
        </mxCell>
        <mxCell id="XJKZSx9Rj0ejB5qCwQDt-8" style="edgeStyle=orthogonalEdgeStyle;orthogonalLoop=1;jettySize=auto;html=1;entryX=0;entryY=0.5;entryDx=0;entryDy=0;strokeColor=#182E3E;fontColor=#1A1A1A;startArrow=classic;startFill=1;" parent="1" source="XJKZSx9Rj0ejB5qCwQDt-3" target="XJKZSx9Rj0ejB5qCwQDt-5" edge="1">
          <mxGeometry relative="1" as="geometry" />
        </mxCell>
        <mxCell id="XJKZSx9Rj0ejB5qCwQDt-9" style="orthogonalLoop=1;jettySize=auto;html=1;exitX=0.5;exitY=1;exitDx=0;exitDy=0;strokeColor=#182E3E;fontColor=#1A1A1A;startArrow=classic;startFill=1;" parent="1" source="XJKZSx9Rj0ejB5qCwQDt-3" target="XJKZSx9Rj0ejB5qCwQDt-6" edge="1">
          <mxGeometry relative="1" as="geometry" />
        </mxCell>
        <mxCell id="XJKZSx9Rj0ejB5qCwQDt-3" value="Process Engineering SSM" style="ellipse;whiteSpace=wrap;html=1;aspect=fixed;strokeColor=#36393d;fillColor=#cdeb8b;" parent="1" vertex="1">
          <mxGeometry x="550" y="325" width="80" height="80" as="geometry" />
        </mxCell>
        <mxCell id="XJKZSx9Rj0ejB5qCwQDt-10" style="orthogonalLoop=1;jettySize=auto;html=1;entryX=1;entryY=0;entryDx=0;entryDy=0;strokeColor=#182E3E;fontColor=#1A1A1A;startArrow=classic;startFill=1;exitX=0.5;exitY=1;exitDx=0;exitDy=0;" parent="1" source="XJKZSx9Rj0ejB5qCwQDt-5" target="XJKZSx9Rj0ejB5qCwQDt-6" edge="1">
          <mxGeometry relative="1" as="geometry" />
        </mxCell>
        <mxCell id="XJKZSx9Rj0ejB5qCwQDt-5" value="Quality Assurance SSM" style="ellipse;whiteSpace=wrap;html=1;aspect=fixed;strokeColor=#36393d;fillColor=#cdeb8b;" parent="1" vertex="1">
          <mxGeometry x="705" y="325" width="80" height="80" as="geometry" />
        </mxCell>
        <mxCell id="XJKZSx9Rj0ejB5qCwQDt-6" value="Maintenance SSM" style="ellipse;whiteSpace=wrap;html=1;aspect=fixed;strokeColor=#36393d;fillColor=#cdeb8b;" parent="1" vertex="1">
          <mxGeometry x="625" y="445" width="80" height="80" as="geometry" />
        </mxCell>
        <mxCell id="XJKZSx9Rj0ejB5qCwQDt-16" style="edgeStyle=none;shape=connector;rounded=1;orthogonalLoop=1;jettySize=auto;html=1;entryX=0;entryY=0.5;entryDx=0;entryDy=0;labelBackgroundColor=default;strokeColor=#182E3E;fontFamily=Helvetica;fontSize=11;fontColor=#1A1A1A;startArrow=classic;startFill=1;endArrow=classic;" parent="1" source="XJKZSx9Rj0ejB5qCwQDt-7" target="XJKZSx9Rj0ejB5qCwQDt-11" edge="1">
          <mxGeometry relative="1" as="geometry" />
        </mxCell>
        <mxCell id="XJKZSx9Rj0ejB5qCwQDt-7" value="Strategic Planner&lt;br&gt;SSM" style="ellipse;whiteSpace=wrap;html=1;aspect=fixed;strokeColor=#36393d;fillColor=#eeeeee;" parent="1" vertex="1">
          <mxGeometry x="385" y="375" width="100" height="100" as="geometry" />
        </mxCell>
        <mxCell id="XJKZSx9Rj0ejB5qCwQDt-12" value="&lt;b&gt;Sensors&lt;br&gt;&lt;/b&gt;&lt;br&gt;Temperature, Pressure, Gas, Particulates" style="rounded=0;whiteSpace=wrap;html=1;fontFamily=Helvetica;fontSize=11;fillColor=#eeeeee;strokeColor=#36393d;" parent="1" vertex="1">
          <mxGeometry x="525" y="585" width="280" height="60" as="geometry" />
        </mxCell>
        <mxCell id="XJKZSx9Rj0ejB5qCwQDt-15" style="edgeStyle=none;shape=connector;rounded=1;orthogonalLoop=1;jettySize=auto;html=1;entryX=0.5;entryY=0;entryDx=0;entryDy=0;labelBackgroundColor=default;strokeColor=#182E3E;fontFamily=Helvetica;fontSize=11;fontColor=#1A1A1A;startArrow=classic;startFill=1;endArrow=classic;" parent="1" source="XJKZSx9Rj0ejB5qCwQDt-13" target="XJKZSx9Rj0ejB5qCwQDt-11" edge="1">
          <mxGeometry relative="1" as="geometry" />
        </mxCell>
        <mxCell id="XJKZSx9Rj0ejB5qCwQDt-13" value="&lt;b&gt;Actuators&lt;br&gt;&lt;/b&gt;&lt;br&gt;Valves, Robotic Arms, Heaters, Pumps" style="rounded=0;whiteSpace=wrap;html=1;fontFamily=Helvetica;fontSize=11;fillColor=#eeeeee;strokeColor=#36393d;" parent="1" vertex="1">
          <mxGeometry x="525" y="205" width="280" height="60" as="geometry" />
        </mxCell>
        <mxCell id="XJKZSx9Rj0ejB5qCwQDt-18" style="edgeStyle=none;shape=connector;rounded=1;orthogonalLoop=1;jettySize=auto;html=1;entryX=0;entryY=0.5;entryDx=0;entryDy=0;labelBackgroundColor=default;strokeColor=#182E3E;fontFamily=Helvetica;fontSize=11;fontColor=#1A1A1A;startArrow=classic;startFill=1;endArrow=classic;" parent="1" source="XJKZSx9Rj0ejB5qCwQDt-17" target="XJKZSx9Rj0ejB5qCwQDt-7" edge="1">
          <mxGeometry relative="1" as="geometry" />
        </mxCell>
        <mxCell id="XJKZSx9Rj0ejB5qCwQDt-17" value="Semiconductor&lt;br&gt;Process&lt;br&gt;Engineer" style="shape=umlActor;verticalLabelPosition=bottom;verticalAlign=top;html=1;outlineConnect=0;strokeColor=#36393d;fontFamily=Helvetica;fontSize=11;fillColor=#eeeeee;" parent="1" vertex="1">
          <mxGeometry x="295" y="395" width="30" height="60" as="geometry" />
        </mxCell>
        <mxCell id="0Sv4GaxlDXKAEfBw0d6Z-1" value="OpenSSM Industrial Use Case&lt;br&gt;&lt;font style=&quot;font-size: 14px;&quot;&gt;As team of experts in a semiconductor manufacturing use case&lt;/font&gt;" style="rounded=0;whiteSpace=wrap;html=1;fontFamily=Helvetica;fontSize=20;shadow=1;glass=1;" parent="1" vertex="1">
          <mxGeometry x="80" y="250" width="410" height="60" as="geometry" />
        </mxCell>
      </root>
    </mxGraphModel>
  </diagram>
  <diagram name="full-industrial-use-case" id="IdN-l-s7ka1oCMWF776A">
    <mxGraphModel dx="1710" dy="1287" grid="1" gridSize="10" guides="1" tooltips="1" connect="1" arrows="1" fold="1" page="1" pageScale="1" pageWidth="1654" pageHeight="1169" math="0" shadow="0">
      <root>
        <mxCell id="vRYbMLX5QDR9ZiNCCvDH-0" />
        <mxCell id="vRYbMLX5QDR9ZiNCCvDH-1" parent="vRYbMLX5QDR9ZiNCCvDH-0" />
        <mxCell id="vRYbMLX5QDR9ZiNCCvDH-17" value="OpenSSM Industrial Use Case&lt;br&gt;&lt;font style=&quot;font-size: 14px;&quot;&gt;As team of experts in a semiconductor manufacturing use case&lt;/font&gt;" style="rounded=0;whiteSpace=wrap;html=1;fontFamily=Helvetica;fontSize=20;shadow=1;glass=1;" parent="vRYbMLX5QDR9ZiNCCvDH-1" vertex="1">
          <mxGeometry x="781" y="365" width="410" height="60" as="geometry" />
        </mxCell>
        <mxCell id="R3Ue4RE7oQupX7eoQNet-31" value="OpenSSM Industrial Use Case&lt;br&gt;&lt;font style=&quot;font-size: 14px;&quot;&gt;As team of experts in a semiconductor manufacturing use case&lt;/font&gt;" style="rounded=0;whiteSpace=wrap;html=1;fontFamily=Helvetica;fontSize=20;shadow=1;glass=1;" parent="vRYbMLX5QDR9ZiNCCvDH-1" vertex="1">
          <mxGeometry x="598" y="1005" width="410" height="60" as="geometry" />
        </mxCell>
        <mxCell id="R3Ue4RE7oQupX7eoQNet-0" value="" style="group" parent="vRYbMLX5QDR9ZiNCCvDH-1" vertex="1" connectable="0">
          <mxGeometry x="358" y="515" width="938" height="470" as="geometry" />
        </mxCell>
        <mxCell id="vRYbMLX5QDR9ZiNCCvDH-12" value="&lt;b&gt;Sensors&lt;br&gt;&lt;/b&gt;&lt;br&gt;Temperature, Pressure, Gas, Particulates" style="rounded=0;whiteSpace=wrap;html=1;fontFamily=Helvetica;fontSize=11;fillColor=#fff2cc;strokeColor=#d6b656;" parent="R3Ue4RE7oQupX7eoQNet-0" vertex="1">
          <mxGeometry x="123" y="410" width="640" height="60" as="geometry" />
        </mxCell>
        <mxCell id="UxfQvC3_PmhjPsxDMNTs-1" value="General Management Models" style="rounded=1;whiteSpace=wrap;html=1;fontFamily=Helvetica;fontSize=11;fillColor=#eeeeee;strokeColor=#36393d;verticalAlign=top;" parent="R3Ue4RE7oQupX7eoQNet-0" vertex="1">
          <mxGeometry x="123" y="120" width="280" height="240" as="geometry" />
        </mxCell>
        <mxCell id="vRYbMLX5QDR9ZiNCCvDH-3" value="Small Specialist Models" style="rounded=1;whiteSpace=wrap;html=1;fontFamily=Helvetica;fontSize=11;fillColor=#eeeeee;strokeColor=#36393d;verticalAlign=top;" parent="R3Ue4RE7oQupX7eoQNet-0" vertex="1">
          <mxGeometry x="483" y="120" width="280" height="240" as="geometry" />
        </mxCell>
        <mxCell id="vRYbMLX5QDR9ZiNCCvDH-6" value="Process Engineering SSM" style="ellipse;whiteSpace=wrap;html=1;aspect=fixed;strokeColor=#36393d;fillColor=#cdeb8b;" parent="R3Ue4RE7oQupX7eoQNet-0" vertex="1">
          <mxGeometry x="513" y="145" width="80" height="80" as="geometry" />
        </mxCell>
        <mxCell id="vRYbMLX5QDR9ZiNCCvDH-8" value="Quality Assurance SSM" style="ellipse;whiteSpace=wrap;html=1;aspect=fixed;strokeColor=#36393d;fillColor=#cdeb8b;" parent="R3Ue4RE7oQupX7eoQNet-0" vertex="1">
          <mxGeometry x="668" y="145" width="80" height="80" as="geometry" />
        </mxCell>
        <mxCell id="vRYbMLX5QDR9ZiNCCvDH-4" style="edgeStyle=orthogonalEdgeStyle;orthogonalLoop=1;jettySize=auto;html=1;entryX=0;entryY=0.5;entryDx=0;entryDy=0;strokeColor=#182E3E;fontColor=#1A1A1A;startArrow=classic;startFill=1;" parent="R3Ue4RE7oQupX7eoQNet-0" source="vRYbMLX5QDR9ZiNCCvDH-6" target="vRYbMLX5QDR9ZiNCCvDH-8" edge="1">
          <mxGeometry relative="1" as="geometry" />
        </mxCell>
        <mxCell id="vRYbMLX5QDR9ZiNCCvDH-9" value="Maintenance SSM" style="ellipse;whiteSpace=wrap;html=1;aspect=fixed;strokeColor=#36393d;fillColor=#cdeb8b;" parent="R3Ue4RE7oQupX7eoQNet-0" vertex="1">
          <mxGeometry x="588" y="265" width="80" height="80" as="geometry" />
        </mxCell>
        <mxCell id="vRYbMLX5QDR9ZiNCCvDH-13" style="edgeStyle=orthogonalEdgeStyle;shape=connector;rounded=1;orthogonalLoop=1;jettySize=auto;html=1;entryX=0.5;entryY=0;entryDx=0;entryDy=0;labelBackgroundColor=default;strokeColor=#182E3E;fontFamily=Helvetica;fontSize=11;fontColor=#1A1A1A;startArrow=classic;startFill=1;endArrow=classic;exitX=0.5;exitY=1;exitDx=0;exitDy=0;" parent="R3Ue4RE7oQupX7eoQNet-0" source="vRYbMLX5QDR9ZiNCCvDH-14" target="vRYbMLX5QDR9ZiNCCvDH-3" edge="1">
          <mxGeometry relative="1" as="geometry" />
        </mxCell>
        <mxCell id="vRYbMLX5QDR9ZiNCCvDH-14" value="&lt;b&gt;Actuators&lt;br&gt;&lt;/b&gt;&lt;br&gt;Valves, Robotic Arms, Heaters, Pumps" style="rounded=0;whiteSpace=wrap;html=1;fontFamily=Helvetica;fontSize=11;fillColor=#fff2cc;strokeColor=#d6b656;" parent="R3Ue4RE7oQupX7eoQNet-0" vertex="1">
          <mxGeometry x="123" width="640" height="60" as="geometry" />
        </mxCell>
        <mxCell id="vRYbMLX5QDR9ZiNCCvDH-15" style="edgeStyle=none;shape=connector;rounded=1;orthogonalLoop=1;jettySize=auto;html=1;entryX=0;entryY=0.5;entryDx=0;entryDy=0;labelBackgroundColor=default;strokeColor=#182E3E;fontFamily=Helvetica;fontSize=11;fontColor=#1A1A1A;startArrow=classic;startFill=1;endArrow=classic;" parent="R3Ue4RE7oQupX7eoQNet-0" source="vRYbMLX5QDR9ZiNCCvDH-16" target="UxfQvC3_PmhjPsxDMNTs-1" edge="1">
          <mxGeometry relative="1" as="geometry">
            <mxPoint x="213" y="192.5" as="targetPoint" />
          </mxGeometry>
        </mxCell>
        <mxCell id="vRYbMLX5QDR9ZiNCCvDH-16" value="Semiconductor&lt;br&gt;Process&lt;br&gt;Engineer" style="shape=umlActor;verticalLabelPosition=bottom;verticalAlign=top;html=1;outlineConnect=0;strokeColor=#36393d;fontFamily=Helvetica;fontSize=11;fillColor=#eeeeee;" parent="R3Ue4RE7oQupX7eoQNet-0" vertex="1">
          <mxGeometry y="210" width="30" height="60" as="geometry" />
        </mxCell>
        <mxCell id="UxfQvC3_PmhjPsxDMNTs-2" value="Planning&lt;br&gt;GMM" style="ellipse;whiteSpace=wrap;html=1;aspect=fixed;strokeColor=#d79b00;fillColor=#ffe6cc;" parent="R3Ue4RE7oQupX7eoQNet-0" vertex="1">
          <mxGeometry x="150" y="145" width="80" height="80" as="geometry" />
        </mxCell>
        <mxCell id="UxfQvC3_PmhjPsxDMNTs-3" value="Reasoning&lt;br&gt;GMM" style="ellipse;whiteSpace=wrap;html=1;aspect=fixed;strokeColor=#d79b00;fillColor=#ffe6cc;" parent="R3Ue4RE7oQupX7eoQNet-0" vertex="1">
          <mxGeometry x="310" y="145" width="80" height="80" as="geometry" />
        </mxCell>
        <mxCell id="UxfQvC3_PmhjPsxDMNTs-5" value="Facts" style="shape=cylinder3;whiteSpace=wrap;html=1;boundedLbl=1;backgroundOutline=1;size=15;fontStyle=1;fontSize=11;fillColor=#fff2cc;strokeColor=#d6b656;" parent="R3Ue4RE7oQupX7eoQNet-0" vertex="1">
          <mxGeometry x="838" y="115" width="94" height="80" as="geometry" />
        </mxCell>
        <mxCell id="UxfQvC3_PmhjPsxDMNTs-6" value="Heuristics" style="shape=cylinder3;whiteSpace=wrap;html=1;boundedLbl=1;backgroundOutline=1;size=15;fontStyle=1;fontSize=11;fillColor=#fff2cc;strokeColor=#d6b656;" parent="R3Ue4RE7oQupX7eoQNet-0" vertex="1">
          <mxGeometry x="839" y="200" width="94" height="80" as="geometry" />
        </mxCell>
        <mxCell id="UxfQvC3_PmhjPsxDMNTs-8" value="Inferencers" style="shape=hexagon;perimeter=hexagonPerimeter2;whiteSpace=wrap;html=1;fixedSize=1;fontStyle=1;fontSize=11;fillColor=#fff2cc;strokeColor=#d6b656;" parent="R3Ue4RE7oQupX7eoQNet-0" vertex="1">
          <mxGeometry x="838" y="290" width="100" height="70" as="geometry" />
        </mxCell>
        <mxCell id="vRYbMLX5QDR9ZiNCCvDH-5" style="orthogonalLoop=1;jettySize=auto;html=1;exitX=0.5;exitY=1;exitDx=0;exitDy=0;strokeColor=#182E3E;fontColor=#1A1A1A;startArrow=classic;startFill=1;" parent="R3Ue4RE7oQupX7eoQNet-0" source="vRYbMLX5QDR9ZiNCCvDH-6" target="vRYbMLX5QDR9ZiNCCvDH-9" edge="1">
          <mxGeometry relative="1" as="geometry" />
        </mxCell>
        <mxCell id="vRYbMLX5QDR9ZiNCCvDH-2" style="edgeStyle=orthogonalEdgeStyle;shape=connector;rounded=1;orthogonalLoop=1;jettySize=auto;html=1;entryX=0.5;entryY=0;entryDx=0;entryDy=0;labelBackgroundColor=default;strokeColor=#182E3E;fontFamily=Helvetica;fontSize=11;fontColor=#1A1A1A;startArrow=classic;startFill=1;endArrow=classic;exitX=0.5;exitY=1;exitDx=0;exitDy=0;" parent="R3Ue4RE7oQupX7eoQNet-0" source="vRYbMLX5QDR9ZiNCCvDH-3" target="vRYbMLX5QDR9ZiNCCvDH-12" edge="1">
          <mxGeometry relative="1" as="geometry" />
        </mxCell>
        <mxCell id="vRYbMLX5QDR9ZiNCCvDH-7" style="orthogonalLoop=1;jettySize=auto;html=1;entryX=1;entryY=0;entryDx=0;entryDy=0;strokeColor=#182E3E;fontColor=#1A1A1A;startArrow=classic;startFill=1;exitX=0.5;exitY=1;exitDx=0;exitDy=0;" parent="R3Ue4RE7oQupX7eoQNet-0" source="vRYbMLX5QDR9ZiNCCvDH-8" target="vRYbMLX5QDR9ZiNCCvDH-9" edge="1">
          <mxGeometry relative="1" as="geometry" />
        </mxCell>
        <mxCell id="UxfQvC3_PmhjPsxDMNTs-10" style="edgeStyle=orthogonalEdgeStyle;shape=connector;rounded=1;orthogonalLoop=1;jettySize=auto;html=1;entryX=0.5;entryY=0;entryDx=0;entryDy=0;labelBackgroundColor=default;strokeColor=#182E3E;fontFamily=Helvetica;fontSize=11;fontColor=#1A1A1A;startArrow=classic;startFill=1;endArrow=classic;exitX=0.5;exitY=1;exitDx=0;exitDy=0;" parent="R3Ue4RE7oQupX7eoQNet-0" source="UxfQvC3_PmhjPsxDMNTs-1" target="vRYbMLX5QDR9ZiNCCvDH-12" edge="1">
          <mxGeometry relative="1" as="geometry">
            <mxPoint x="638" y="375" as="sourcePoint" />
            <mxPoint x="486" y="415" as="targetPoint" />
          </mxGeometry>
        </mxCell>
        <mxCell id="UxfQvC3_PmhjPsxDMNTs-12" style="edgeStyle=orthogonalEdgeStyle;shape=connector;rounded=1;orthogonalLoop=1;jettySize=auto;html=1;entryX=0.5;entryY=0;entryDx=0;entryDy=0;labelBackgroundColor=default;strokeColor=#182E3E;fontFamily=Helvetica;fontSize=11;fontColor=#1A1A1A;startArrow=classic;startFill=1;endArrow=classic;exitX=0.5;exitY=1;exitDx=0;exitDy=0;" parent="R3Ue4RE7oQupX7eoQNet-0" source="vRYbMLX5QDR9ZiNCCvDH-14" target="UxfQvC3_PmhjPsxDMNTs-1" edge="1">
          <mxGeometry relative="1" as="geometry">
            <mxPoint x="613" y="70" as="sourcePoint" />
            <mxPoint x="633" y="130" as="targetPoint" />
          </mxGeometry>
        </mxCell>
        <mxCell id="UxfQvC3_PmhjPsxDMNTs-13" style="edgeStyle=none;shape=connector;rounded=1;orthogonalLoop=1;jettySize=auto;html=1;entryX=0;entryY=0.5;entryDx=0;entryDy=0;labelBackgroundColor=default;strokeColor=#182E3E;fontFamily=Helvetica;fontSize=11;fontColor=#1A1A1A;startArrow=classic;startFill=1;endArrow=classic;exitX=1;exitY=0.5;exitDx=0;exitDy=0;" parent="R3Ue4RE7oQupX7eoQNet-0" source="UxfQvC3_PmhjPsxDMNTs-1" target="vRYbMLX5QDR9ZiNCCvDH-3" edge="1">
          <mxGeometry relative="1" as="geometry">
            <mxPoint x="633" y="370" as="sourcePoint" />
            <mxPoint x="613" y="420" as="targetPoint" />
          </mxGeometry>
        </mxCell>
        <mxCell id="UxfQvC3_PmhjPsxDMNTs-16" style="edgeStyle=orthogonalEdgeStyle;rounded=1;orthogonalLoop=1;jettySize=auto;html=1;entryX=0;entryY=0.5;entryDx=0;entryDy=0;entryPerimeter=0;" parent="R3Ue4RE7oQupX7eoQNet-0" target="UxfQvC3_PmhjPsxDMNTs-6" edge="1">
          <mxGeometry relative="1" as="geometry">
            <mxPoint x="763" y="240" as="sourcePoint" />
            <mxPoint x="853" y="170" as="targetPoint" />
          </mxGeometry>
        </mxCell>
        <mxCell id="UxfQvC3_PmhjPsxDMNTs-17" style="edgeStyle=orthogonalEdgeStyle;rounded=1;orthogonalLoop=1;jettySize=auto;html=1;exitX=1;exitY=0.5;exitDx=0;exitDy=0;entryX=0;entryY=0.5;entryDx=0;entryDy=0;" parent="R3Ue4RE7oQupX7eoQNet-0" source="vRYbMLX5QDR9ZiNCCvDH-3" target="UxfQvC3_PmhjPsxDMNTs-8" edge="1">
          <mxGeometry relative="1" as="geometry">
            <mxPoint x="783" y="260" as="sourcePoint" />
            <mxPoint x="863" y="180" as="targetPoint" />
          </mxGeometry>
        </mxCell>
        <mxCell id="UxfQvC3_PmhjPsxDMNTs-18" value="Scheduling&lt;br&gt;GMM" style="ellipse;whiteSpace=wrap;html=1;aspect=fixed;strokeColor=#d79b00;fillColor=#ffe6cc;" parent="R3Ue4RE7oQupX7eoQNet-0" vertex="1">
          <mxGeometry x="223" y="265" width="80" height="80" as="geometry" />
        </mxCell>
        <mxCell id="UxfQvC3_PmhjPsxDMNTs-19" style="orthogonalLoop=1;jettySize=auto;html=1;exitX=0.5;exitY=1;exitDx=0;exitDy=0;strokeColor=#182E3E;fontColor=#1A1A1A;startArrow=classic;startFill=1;" parent="R3Ue4RE7oQupX7eoQNet-0" source="UxfQvC3_PmhjPsxDMNTs-2" target="UxfQvC3_PmhjPsxDMNTs-18" edge="1">
          <mxGeometry relative="1" as="geometry">
            <mxPoint x="563" y="235" as="sourcePoint" />
            <mxPoint x="611" y="286" as="targetPoint" />
          </mxGeometry>
        </mxCell>
        <mxCell id="UxfQvC3_PmhjPsxDMNTs-20" style="orthogonalLoop=1;jettySize=auto;html=1;exitX=0.5;exitY=1;exitDx=0;exitDy=0;strokeColor=#182E3E;fontColor=#1A1A1A;startArrow=classic;startFill=1;entryX=1;entryY=0;entryDx=0;entryDy=0;" parent="R3Ue4RE7oQupX7eoQNet-0" source="UxfQvC3_PmhjPsxDMNTs-3" target="UxfQvC3_PmhjPsxDMNTs-18" edge="1">
          <mxGeometry relative="1" as="geometry">
            <mxPoint x="203" y="250" as="sourcePoint" />
            <mxPoint x="242" y="280" as="targetPoint" />
          </mxGeometry>
        </mxCell>
        <mxCell id="UxfQvC3_PmhjPsxDMNTs-15" style="edgeStyle=orthogonalEdgeStyle;rounded=1;orthogonalLoop=1;jettySize=auto;html=1;" parent="R3Ue4RE7oQupX7eoQNet-0" source="vRYbMLX5QDR9ZiNCCvDH-3" target="UxfQvC3_PmhjPsxDMNTs-5" edge="1">
          <mxGeometry relative="1" as="geometry" />
        </mxCell>
        <mxCell id="UxfQvC3_PmhjPsxDMNTs-21" style="orthogonalLoop=1;jettySize=auto;html=1;strokeColor=#182E3E;fontColor=#1A1A1A;startArrow=classic;startFill=1;entryX=1;entryY=0.5;entryDx=0;entryDy=0;exitX=0;exitY=0.5;exitDx=0;exitDy=0;" parent="R3Ue4RE7oQupX7eoQNet-0" source="UxfQvC3_PmhjPsxDMNTs-3" target="UxfQvC3_PmhjPsxDMNTs-2" edge="1">
          <mxGeometry relative="1" as="geometry">
            <mxPoint x="213" y="260" as="sourcePoint" />
            <mxPoint x="252" y="290" as="targetPoint" />
          </mxGeometry>
        </mxCell>
        <mxCell id="R3Ue4RE7oQupX7eoQNet-4" value="Small Specialist Models" style="rounded=1;whiteSpace=wrap;html=1;fontFamily=Helvetica;fontSize=11;fillColor=#eeeeee;strokeColor=#36393d;verticalAlign=top;" parent="vRYbMLX5QDR9ZiNCCvDH-1" vertex="1">
          <mxGeometry x="841" y="105" width="280" height="240" as="geometry" />
        </mxCell>
        <mxCell id="R3Ue4RE7oQupX7eoQNet-5" value="Process Engineering SSM" style="ellipse;whiteSpace=wrap;html=1;aspect=fixed;strokeColor=#36393d;fillColor=#cdeb8b;" parent="vRYbMLX5QDR9ZiNCCvDH-1" vertex="1">
          <mxGeometry x="871" y="130" width="80" height="80" as="geometry" />
        </mxCell>
        <mxCell id="R3Ue4RE7oQupX7eoQNet-6" value="Quality Assurance SSM" style="ellipse;whiteSpace=wrap;html=1;aspect=fixed;strokeColor=#36393d;fillColor=#cdeb8b;" parent="vRYbMLX5QDR9ZiNCCvDH-1" vertex="1">
          <mxGeometry x="1026" y="130" width="80" height="80" as="geometry" />
        </mxCell>
        <mxCell id="R3Ue4RE7oQupX7eoQNet-7" style="edgeStyle=orthogonalEdgeStyle;orthogonalLoop=1;jettySize=auto;html=1;entryX=0;entryY=0.5;entryDx=0;entryDy=0;strokeColor=#182E3E;fontColor=#1A1A1A;startArrow=classic;startFill=1;" parent="vRYbMLX5QDR9ZiNCCvDH-1" source="R3Ue4RE7oQupX7eoQNet-5" target="R3Ue4RE7oQupX7eoQNet-6" edge="1">
          <mxGeometry relative="1" as="geometry" />
        </mxCell>
        <mxCell id="R3Ue4RE7oQupX7eoQNet-8" value="Maintenance SSM" style="ellipse;whiteSpace=wrap;html=1;aspect=fixed;strokeColor=#36393d;fillColor=#cdeb8b;" parent="vRYbMLX5QDR9ZiNCCvDH-1" vertex="1">
          <mxGeometry x="946" y="250" width="80" height="80" as="geometry" />
        </mxCell>
        <mxCell id="R3Ue4RE7oQupX7eoQNet-18" style="orthogonalLoop=1;jettySize=auto;html=1;exitX=0.5;exitY=1;exitDx=0;exitDy=0;strokeColor=#182E3E;fontColor=#1A1A1A;startArrow=classic;startFill=1;" parent="vRYbMLX5QDR9ZiNCCvDH-1" source="R3Ue4RE7oQupX7eoQNet-5" target="R3Ue4RE7oQupX7eoQNet-8" edge="1">
          <mxGeometry relative="1" as="geometry" />
        </mxCell>
        <mxCell id="R3Ue4RE7oQupX7eoQNet-20" style="orthogonalLoop=1;jettySize=auto;html=1;entryX=1;entryY=0;entryDx=0;entryDy=0;strokeColor=#182E3E;fontColor=#1A1A1A;startArrow=classic;startFill=1;exitX=0.5;exitY=1;exitDx=0;exitDy=0;" parent="vRYbMLX5QDR9ZiNCCvDH-1" source="R3Ue4RE7oQupX7eoQNet-6" target="R3Ue4RE7oQupX7eoQNet-8" edge="1">
          <mxGeometry relative="1" as="geometry" />
        </mxCell>
      </root>
    </mxGraphModel>
  </diagram>
  <diagram name="ooda-loop" id="RgNLeJyifCr4ZRtb512o">
    <mxGraphModel dx="1710" dy="1287" grid="1" gridSize="10" guides="1" tooltips="1" connect="1" arrows="1" fold="1" page="1" pageScale="1" pageWidth="1654" pageHeight="1169" math="0" shadow="0">
      <root>
        <mxCell id="7D1QwWW0he91KMWjI3kh-0" />
        <mxCell id="7D1QwWW0he91KMWjI3kh-1" parent="7D1QwWW0he91KMWjI3kh-0" />
        <mxCell id="6PFIv0f2EcVy_5E1OHoy-1" value="" style="rounded=1;whiteSpace=wrap;html=1;fontFamily=Helvetica;fontSize=11;verticalAlign=top;fillColor=#fff2cc;strokeColor=#d6b656;" vertex="1" parent="7D1QwWW0he91KMWjI3kh-1">
          <mxGeometry x="560" y="260" width="600" height="520" as="geometry" />
        </mxCell>
        <mxCell id="6PFIv0f2EcVy_5E1OHoy-0" value="" style="rounded=1;whiteSpace=wrap;html=1;fontFamily=Helvetica;fontSize=11;verticalAlign=top;strokeColor=#B8A87C;" vertex="1" parent="7D1QwWW0he91KMWjI3kh-1">
          <mxGeometry x="670" y="348.44" width="380" height="343.12" as="geometry" />
        </mxCell>
        <mxCell id="7D1QwWW0he91KMWjI3kh-34" value="Small Specialist Models" style="rounded=1;whiteSpace=wrap;html=1;fontFamily=Helvetica;fontSize=11;fillColor=#fff2cc;strokeColor=#d6b656;verticalAlign=top;" vertex="1" parent="7D1QwWW0he91KMWjI3kh-1">
          <mxGeometry x="720" y="400" width="280" height="240" as="geometry" />
        </mxCell>
        <mxCell id="7D1QwWW0he91KMWjI3kh-35" value="Process Engineering SSM" style="ellipse;whiteSpace=wrap;html=1;aspect=fixed;strokeColor=#36393d;fillColor=#cdeb8b;" vertex="1" parent="7D1QwWW0he91KMWjI3kh-1">
          <mxGeometry x="740" y="425" width="80" height="80" as="geometry" />
        </mxCell>
        <mxCell id="7D1QwWW0he91KMWjI3kh-36" value="Quality Assurance SSM" style="ellipse;whiteSpace=wrap;html=1;aspect=fixed;strokeColor=#36393d;fillColor=#cdeb8b;" vertex="1" parent="7D1QwWW0he91KMWjI3kh-1">
          <mxGeometry x="895" y="425" width="80" height="80" as="geometry" />
        </mxCell>
        <mxCell id="7D1QwWW0he91KMWjI3kh-37" style="edgeStyle=orthogonalEdgeStyle;orthogonalLoop=1;jettySize=auto;html=1;entryX=0;entryY=0.5;entryDx=0;entryDy=0;strokeColor=#182E3E;fontColor=#1A1A1A;startArrow=classic;startFill=1;" edge="1" parent="7D1QwWW0he91KMWjI3kh-1" source="7D1QwWW0he91KMWjI3kh-35" target="7D1QwWW0he91KMWjI3kh-36">
          <mxGeometry relative="1" as="geometry" />
        </mxCell>
        <mxCell id="7D1QwWW0he91KMWjI3kh-38" value="Maintenance SSM" style="ellipse;whiteSpace=wrap;html=1;aspect=fixed;strokeColor=#36393d;fillColor=#cdeb8b;" vertex="1" parent="7D1QwWW0he91KMWjI3kh-1">
          <mxGeometry x="815" y="545" width="80" height="80" as="geometry" />
        </mxCell>
        <mxCell id="7D1QwWW0he91KMWjI3kh-39" style="orthogonalLoop=1;jettySize=auto;html=1;exitX=0.5;exitY=1;exitDx=0;exitDy=0;strokeColor=#182E3E;fontColor=#1A1A1A;startArrow=classic;startFill=1;" edge="1" parent="7D1QwWW0he91KMWjI3kh-1" source="7D1QwWW0he91KMWjI3kh-35" target="7D1QwWW0he91KMWjI3kh-38">
          <mxGeometry relative="1" as="geometry" />
        </mxCell>
        <mxCell id="7D1QwWW0he91KMWjI3kh-40" style="orthogonalLoop=1;jettySize=auto;html=1;entryX=1;entryY=0;entryDx=0;entryDy=0;strokeColor=#182E3E;fontColor=#1A1A1A;startArrow=classic;startFill=1;exitX=0.5;exitY=1;exitDx=0;exitDy=0;" edge="1" parent="7D1QwWW0he91KMWjI3kh-1" source="7D1QwWW0he91KMWjI3kh-36" target="7D1QwWW0he91KMWjI3kh-38">
          <mxGeometry relative="1" as="geometry" />
        </mxCell>
        <mxCell id="7D1QwWW0he91KMWjI3kh-5" value="&lt;b style=&quot;font-size: 20px;&quot;&gt;Sensors&lt;br style=&quot;font-size: 20px;&quot;&gt;&lt;/b&gt;&lt;br style=&quot;font-size: 20px;&quot;&gt;Temperature, Pressure, Gas, Particulates" style="rounded=0;whiteSpace=wrap;html=1;fontFamily=Helvetica;fontSize=20;fillColor=#fff2cc;strokeColor=#d6b656;" vertex="1" parent="7D1QwWW0he91KMWjI3kh-1">
          <mxGeometry x="560" y="130" width="600" height="90" as="geometry" />
        </mxCell>
        <mxCell id="7D1QwWW0he91KMWjI3kh-13" value="&lt;b style=&quot;font-size: 20px;&quot;&gt;Actuators&lt;br style=&quot;font-size: 20px;&quot;&gt;&lt;/b&gt;&lt;br style=&quot;font-size: 20px;&quot;&gt;Valves, Robotic Arms, Heaters, Pumps" style="rounded=0;whiteSpace=wrap;html=1;fontFamily=Helvetica;fontSize=20;fillColor=#fff2cc;strokeColor=#d6b656;" vertex="1" parent="7D1QwWW0he91KMWjI3kh-1">
          <mxGeometry x="560" y="820" width="590" height="90" as="geometry" />
        </mxCell>
        <mxCell id="6PFIv0f2EcVy_5E1OHoy-2" value="Planning&lt;br&gt;GMM" style="ellipse;whiteSpace=wrap;html=1;aspect=fixed;strokeColor=#6c8ebf;fillColor=#dae8fc;" vertex="1" parent="7D1QwWW0he91KMWjI3kh-1">
          <mxGeometry x="580" y="680" width="80" height="80" as="geometry" />
        </mxCell>
        <mxCell id="6PFIv0f2EcVy_5E1OHoy-3" value="Reasoning&lt;br&gt;GMM" style="ellipse;whiteSpace=wrap;html=1;aspect=fixed;strokeColor=#6c8ebf;fillColor=#dae8fc;" vertex="1" parent="7D1QwWW0he91KMWjI3kh-1">
          <mxGeometry x="1050" y="288" width="80" height="80" as="geometry" />
        </mxCell>
        <mxCell id="6PFIv0f2EcVy_5E1OHoy-4" value="Scheduling&lt;br&gt;GMM" style="ellipse;whiteSpace=wrap;html=1;aspect=fixed;strokeColor=#6c8ebf;fillColor=#dae8fc;" vertex="1" parent="7D1QwWW0he91KMWjI3kh-1">
          <mxGeometry x="1060" y="680" width="80" height="80" as="geometry" />
        </mxCell>
        <mxCell id="6PFIv0f2EcVy_5E1OHoy-5" value="OBSERVE" style="text;html=1;strokeColor=none;fillColor=none;align=center;verticalAlign=middle;whiteSpace=wrap;rounded=0;fontSize=20;fontStyle=1" vertex="1" parent="7D1QwWW0he91KMWjI3kh-1">
          <mxGeometry x="825" y="288" width="60" height="30" as="geometry" />
        </mxCell>
        <mxCell id="6PFIv0f2EcVy_5E1OHoy-6" value="ACT" style="text;html=1;strokeColor=none;fillColor=none;align=center;verticalAlign=middle;whiteSpace=wrap;rounded=0;fontSize=20;fontStyle=1" vertex="1" parent="7D1QwWW0he91KMWjI3kh-1">
          <mxGeometry x="827" y="720" width="60" height="30" as="geometry" />
        </mxCell>
        <mxCell id="6PFIv0f2EcVy_5E1OHoy-7" value="ORIENT" style="text;html=1;strokeColor=none;fillColor=none;align=center;verticalAlign=middle;whiteSpace=wrap;rounded=0;fontSize=20;fontStyle=1;rotation=270;" vertex="1" parent="7D1QwWW0he91KMWjI3kh-1">
          <mxGeometry x="590" y="505" width="60" height="30" as="geometry" />
        </mxCell>
        <mxCell id="6PFIv0f2EcVy_5E1OHoy-8" value="DECIDE" style="text;html=1;strokeColor=none;fillColor=none;align=center;verticalAlign=middle;whiteSpace=wrap;rounded=0;fontSize=20;fontStyle=1;rotation=90;" vertex="1" parent="7D1QwWW0he91KMWjI3kh-1">
          <mxGeometry x="1070" y="505" width="60" height="30" as="geometry" />
        </mxCell>
        <mxCell id="6PFIv0f2EcVy_5E1OHoy-10" value="Sensing&lt;br&gt;GMM" style="ellipse;whiteSpace=wrap;html=1;aspect=fixed;strokeColor=#6c8ebf;fillColor=#dae8fc;" vertex="1" parent="7D1QwWW0he91KMWjI3kh-1">
          <mxGeometry x="590" y="288" width="80" height="80" as="geometry" />
        </mxCell>
        <mxCell id="6PFIv0f2EcVy_5E1OHoy-11" value="SSMs" style="shape=flexArrow;endArrow=classic;html=1;rounded=0;width=20;fontSize=20;fontStyle=1;fillColor=#f5f5f5;strokeColor=#666666;" edge="1" parent="7D1QwWW0he91KMWjI3kh-1">
          <mxGeometry width="50" height="50" relative="1" as="geometry">
            <mxPoint x="430" y="310" as="sourcePoint" />
            <mxPoint x="740" y="444" as="targetPoint" />
          </mxGeometry>
        </mxCell>
        <mxCell id="6PFIv0f2EcVy_5E1OHoy-12" value="aiCALM" style="shape=flexArrow;endArrow=classic;html=1;rounded=0;width=20;fontSize=20;fontStyle=1;fillColor=#f5f5f5;strokeColor=#666666;" edge="1" parent="7D1QwWW0he91KMWjI3kh-1">
          <mxGeometry width="50" height="50" relative="1" as="geometry">
            <mxPoint x="360" y="440" as="sourcePoint" />
            <mxPoint x="570" y="524" as="targetPoint" />
          </mxGeometry>
        </mxCell>
      </root>
    </mxGraphModel>
  </diagram>
  <diagram id="MSQyXtnzZqKQ1t71p9nx" name="key-components">
    <mxGraphModel dx="1026" dy="772" grid="1" gridSize="10" guides="1" tooltips="1" connect="1" arrows="1" fold="1" page="1" pageScale="1" pageWidth="1100" pageHeight="850" math="0" shadow="0">
      <root>
        <mxCell id="0" />
        <mxCell id="1" parent="0" />
        <mxCell id="Mf-JLtX56g48apQCMdDD-1" value="SSM" style="rounded=1;whiteSpace=wrap;html=1;strokeColor=#36393d;fontFamily=Helvetica;fontSize=16;fillColor=#cdeb8b;verticalAlign=top;" parent="1" vertex="1">
          <mxGeometry x="355" y="275" width="500" height="300" as="geometry" />
        </mxCell>
        <mxCell id="H5P9r5N9csEbkpURsWGX-11" style="edgeStyle=none;shape=connector;rounded=1;orthogonalLoop=1;jettySize=auto;html=1;entryX=0;entryY=0.5;entryDx=0;entryDy=0;labelBackgroundColor=default;strokeColor=#182E3E;fontFamily=Helvetica;fontSize=11;fontColor=#1A1A1A;startArrow=classic;startFill=1;endArrow=classic;" parent="1" source="H5P9r5N9csEbkpURsWGX-1" target="H5P9r5N9csEbkpURsWGX-2" edge="1">
          <mxGeometry relative="1" as="geometry" />
        </mxCell>
        <mxCell id="H5P9r5N9csEbkpURsWGX-1" value="SLM&lt;br&gt;(Small Language Model)" style="ellipse;whiteSpace=wrap;html=1;aspect=fixed;strokeColor=#36393d;fontFamily=Helvetica;fontSize=11;fillColor=#ffcc99;" parent="1" vertex="1">
          <mxGeometry x="375" y="385" width="80" height="80" as="geometry" />
        </mxCell>
        <mxCell id="H5P9r5N9csEbkpURsWGX-12" style="edgeStyle=none;shape=connector;rounded=1;orthogonalLoop=1;jettySize=auto;html=1;entryX=0;entryY=0.5;entryDx=0;entryDy=0;labelBackgroundColor=default;strokeColor=#182E3E;fontFamily=Helvetica;fontSize=11;fontColor=#1A1A1A;startArrow=classic;startFill=1;endArrow=classic;" parent="1" source="H5P9r5N9csEbkpURsWGX-2" target="H5P9r5N9csEbkpURsWGX-3" edge="1">
          <mxGeometry relative="1" as="geometry" />
        </mxCell>
        <mxCell id="H5P9r5N9csEbkpURsWGX-13" style="edgeStyle=none;shape=connector;rounded=1;orthogonalLoop=1;jettySize=auto;html=1;entryX=0;entryY=0.5;entryDx=0;entryDy=0;labelBackgroundColor=default;strokeColor=#182E3E;fontFamily=Helvetica;fontSize=11;fontColor=#1A1A1A;startArrow=classic;startFill=1;endArrow=classic;" parent="1" source="H5P9r5N9csEbkpURsWGX-2" target="H5P9r5N9csEbkpURsWGX-6" edge="1">
          <mxGeometry relative="1" as="geometry" />
        </mxCell>
        <mxCell id="H5P9r5N9csEbkpURsWGX-14" style="edgeStyle=none;shape=connector;rounded=1;orthogonalLoop=1;jettySize=auto;html=1;entryX=0;entryY=0.5;entryDx=0;entryDy=0;labelBackgroundColor=default;strokeColor=#182E3E;fontFamily=Helvetica;fontSize=11;fontColor=#1A1A1A;startArrow=classic;startFill=1;endArrow=classic;" parent="1" source="H5P9r5N9csEbkpURsWGX-2" target="H5P9r5N9csEbkpURsWGX-7" edge="1">
          <mxGeometry relative="1" as="geometry" />
        </mxCell>
        <mxCell id="H5P9r5N9csEbkpURsWGX-15" style="edgeStyle=none;shape=connector;rounded=1;orthogonalLoop=1;jettySize=auto;html=1;entryX=0;entryY=0.5;entryDx=0;entryDy=0;labelBackgroundColor=default;strokeColor=#182E3E;fontFamily=Helvetica;fontSize=11;fontColor=#1A1A1A;startArrow=classic;startFill=1;endArrow=classic;" parent="1" source="H5P9r5N9csEbkpURsWGX-2" target="H5P9r5N9csEbkpURsWGX-8" edge="1">
          <mxGeometry relative="1" as="geometry" />
        </mxCell>
        <mxCell id="H5P9r5N9csEbkpURsWGX-16" style="edgeStyle=none;shape=connector;rounded=1;orthogonalLoop=1;jettySize=auto;html=1;entryX=0;entryY=0.5;entryDx=0;entryDy=0;labelBackgroundColor=default;strokeColor=#182E3E;fontFamily=Helvetica;fontSize=11;fontColor=#1A1A1A;startArrow=classic;startFill=1;endArrow=classic;" parent="1" source="H5P9r5N9csEbkpURsWGX-2" target="H5P9r5N9csEbkpURsWGX-9" edge="1">
          <mxGeometry relative="1" as="geometry" />
        </mxCell>
        <mxCell id="H5P9r5N9csEbkpURsWGX-17" style="edgeStyle=none;shape=connector;rounded=1;orthogonalLoop=1;jettySize=auto;html=1;entryX=0;entryY=0.5;entryDx=0;entryDy=0;labelBackgroundColor=default;strokeColor=#182E3E;fontFamily=Helvetica;fontSize=11;fontColor=#1A1A1A;startArrow=classic;startFill=1;endArrow=classic;" parent="1" source="H5P9r5N9csEbkpURsWGX-2" target="H5P9r5N9csEbkpURsWGX-10" edge="1">
          <mxGeometry relative="1" as="geometry" />
        </mxCell>
        <mxCell id="H5P9r5N9csEbkpURsWGX-2" value="Adapter&lt;br&gt;(e.g., LlamaIndex)" style="shape=step;perimeter=stepPerimeter;whiteSpace=wrap;html=1;fixedSize=1;strokeColor=#36393d;fontFamily=Helvetica;fontSize=11;fillColor=#ffcc99;" parent="1" vertex="1">
          <mxGeometry x="505" y="385" width="120" height="80" as="geometry" />
        </mxCell>
        <mxCell id="H5P9r5N9csEbkpURsWGX-3" value="Text, PDFs" style="rounded=0;whiteSpace=wrap;html=1;strokeColor=#36393d;fontFamily=Helvetica;fontSize=11;fillColor=#ffcc99;" parent="1" vertex="1">
          <mxGeometry x="687.5" y="315" width="135" height="30" as="geometry" />
        </mxCell>
        <mxCell id="H5P9r5N9csEbkpURsWGX-4" value="Domain-Knowledge Backends" style="text;html=1;strokeColor=none;fillColor=none;align=center;verticalAlign=middle;whiteSpace=wrap;rounded=0;fontSize=11;fontFamily=Helvetica;fontColor=#1A1A1A;" parent="1" vertex="1">
          <mxGeometry x="675" y="285" width="160" height="30" as="geometry" />
        </mxCell>
        <mxCell id="H5P9r5N9csEbkpURsWGX-6" value="Google Drive" style="rounded=0;whiteSpace=wrap;html=1;strokeColor=#36393d;fontFamily=Helvetica;fontSize=11;fillColor=#ffcc99;" parent="1" vertex="1">
          <mxGeometry x="687.5" y="355" width="135" height="30" as="geometry" />
        </mxCell>
        <mxCell id="H5P9r5N9csEbkpURsWGX-7" value="Spreadsheets" style="rounded=0;whiteSpace=wrap;html=1;strokeColor=#36393d;fontFamily=Helvetica;fontSize=11;fillColor=#ffcc99;" parent="1" vertex="1">
          <mxGeometry x="687.5" y="395" width="135" height="30" as="geometry" />
        </mxCell>
        <mxCell id="H5P9r5N9csEbkpURsWGX-8" value="Code" style="rounded=0;whiteSpace=wrap;html=1;strokeColor=#36393d;fontFamily=Helvetica;fontSize=11;fillColor=#ffcc99;" parent="1" vertex="1">
          <mxGeometry x="687.5" y="435" width="135" height="30" as="geometry" />
        </mxCell>
        <mxCell id="H5P9r5N9csEbkpURsWGX-9" value="Fuzzy Logic" style="rounded=0;whiteSpace=wrap;html=1;strokeColor=#36393d;fontFamily=Helvetica;fontSize=11;fillColor=#ffcc99;" parent="1" vertex="1">
          <mxGeometry x="687.5" y="475" width="135" height="30" as="geometry" />
        </mxCell>
        <mxCell id="H5P9r5N9csEbkpURsWGX-10" value="Models" style="rounded=0;whiteSpace=wrap;html=1;strokeColor=#36393d;fontFamily=Helvetica;fontSize=11;fillColor=#ffcc99;" parent="1" vertex="1">
          <mxGeometry x="687.5" y="515" width="135" height="30" as="geometry" />
        </mxCell>
        <mxCell id="cU7Y9FVFM4Y2OoRwl5s1-3" style="edgeStyle=none;shape=connector;rounded=1;orthogonalLoop=1;jettySize=auto;html=1;entryX=0;entryY=0.5;entryDx=0;entryDy=0;labelBackgroundColor=default;strokeColor=#182E3E;fontFamily=Helvetica;fontSize=11;fontColor=#1A1A1A;startArrow=classic;startFill=1;endArrow=classic;" parent="1" source="cU7Y9FVFM4Y2OoRwl5s1-1" target="Mf-JLtX56g48apQCMdDD-1" edge="1">
          <mxGeometry relative="1" as="geometry" />
        </mxCell>
        <mxCell id="cU7Y9FVFM4Y2OoRwl5s1-1" value="User" style="shape=umlActor;verticalLabelPosition=bottom;verticalAlign=top;html=1;outlineConnect=0;fontFamily=Helvetica;fontSize=11;" parent="1" vertex="1">
          <mxGeometry x="245" y="395" width="30" height="60" as="geometry" />
        </mxCell>
        <mxCell id="pQyb9hLRcrCQ7zoxUbhm-1" value="OpenSSM Key Components&lt;br&gt;&lt;font style=&quot;font-size: 14px;&quot;&gt;SLM → Adapter → Backends&lt;/font&gt;" style="rounded=0;whiteSpace=wrap;html=1;fontFamily=Helvetica;fontSize=20;shadow=1;glass=1;" parent="1" vertex="1">
          <mxGeometry x="400" y="620" width="410" height="60" as="geometry" />
        </mxCell>
      </root>
    </mxGraphModel>
  </diagram>
  <diagram id="WXQKz-aBNWhumgjnGhRv" name="composability">
    <mxGraphModel dx="1026" dy="772" grid="1" gridSize="10" guides="1" tooltips="1" connect="1" arrows="1" fold="1" page="1" pageScale="1" pageWidth="1100" pageHeight="850" math="0" shadow="0">
      <root>
        <mxCell id="0" />
        <mxCell id="1" parent="0" />
        <mxCell id="T56QmzQmo5wIUWg2_XxA-6" style="edgeStyle=none;shape=connector;rounded=1;orthogonalLoop=1;jettySize=auto;html=1;entryX=0;entryY=0.5;entryDx=0;entryDy=0;labelBackgroundColor=default;strokeColor=#182E3E;fontFamily=Helvetica;fontSize=11;fontColor=#1A1A1A;startArrow=classic;startFill=1;endArrow=classic;" parent="1" source="T56QmzQmo5wIUWg2_XxA-1" target="T56QmzQmo5wIUWg2_XxA-2" edge="1">
          <mxGeometry relative="1" as="geometry" />
        </mxCell>
        <mxCell id="T56QmzQmo5wIUWg2_XxA-7" style="edgeStyle=none;shape=connector;rounded=1;orthogonalLoop=1;jettySize=auto;html=1;entryX=0;entryY=0.5;entryDx=0;entryDy=0;labelBackgroundColor=default;strokeColor=#182E3E;fontFamily=Helvetica;fontSize=11;fontColor=#1A1A1A;startArrow=classic;startFill=1;endArrow=classic;" parent="1" source="T56QmzQmo5wIUWg2_XxA-1" target="T56QmzQmo5wIUWg2_XxA-4" edge="1">
          <mxGeometry relative="1" as="geometry" />
        </mxCell>
        <mxCell id="T56QmzQmo5wIUWg2_XxA-8" style="edgeStyle=none;shape=connector;rounded=1;orthogonalLoop=1;jettySize=auto;html=1;entryX=0;entryY=0.5;entryDx=0;entryDy=0;labelBackgroundColor=default;strokeColor=#182E3E;fontFamily=Helvetica;fontSize=11;fontColor=#1A1A1A;startArrow=classic;startFill=1;endArrow=classic;" parent="1" source="T56QmzQmo5wIUWg2_XxA-1" target="T56QmzQmo5wIUWg2_XxA-5" edge="1">
          <mxGeometry relative="1" as="geometry" />
        </mxCell>
        <mxCell id="T56QmzQmo5wIUWg2_XxA-9" style="edgeStyle=none;shape=connector;rounded=1;orthogonalLoop=1;jettySize=auto;html=1;entryX=0;entryY=0.5;entryDx=0;entryDy=0;labelBackgroundColor=default;strokeColor=#182E3E;fontFamily=Helvetica;fontSize=11;fontColor=#1A1A1A;startArrow=classic;startFill=1;endArrow=classic;" parent="1" source="T56QmzQmo5wIUWg2_XxA-1" target="T56QmzQmo5wIUWg2_XxA-3" edge="1">
          <mxGeometry relative="1" as="geometry" />
        </mxCell>
        <mxCell id="T56QmzQmo5wIUWg2_XxA-1" value="Semicond&lt;br&gt;Tool &lt;br&gt;Expert&lt;br&gt;SSM" style="ellipse;whiteSpace=wrap;html=1;aspect=fixed;strokeColor=#36393d;fillColor=#cdeb8b;" parent="1" vertex="1">
          <mxGeometry x="448" y="380" width="80" height="80" as="geometry" />
        </mxCell>
        <mxCell id="T56QmzQmo5wIUWg2_XxA-2" value="ALD&lt;br&gt;Tool&lt;br&gt;&amp;nbsp;Expert&lt;br&gt;SSM" style="ellipse;whiteSpace=wrap;html=1;aspect=fixed;strokeColor=#36393d;fillColor=#cdeb8b;" parent="1" vertex="1">
          <mxGeometry x="598" y="280" width="80" height="80" as="geometry" />
        </mxCell>
        <mxCell id="T56QmzQmo5wIUWg2_XxA-3" value="CVD&lt;br&gt;Tool&lt;br&gt;&amp;nbsp;Expert&lt;br&gt;SSM" style="ellipse;whiteSpace=wrap;html=1;aspect=fixed;strokeColor=#36393d;fillColor=#cdeb8b;" parent="1" vertex="1">
          <mxGeometry x="598" y="490" width="80" height="80" as="geometry" />
        </mxCell>
        <mxCell id="T56QmzQmo5wIUWg2_XxA-4" value="Litho&lt;br&gt;Tool&lt;br&gt;&amp;nbsp;Expert&lt;br&gt;SSM" style="ellipse;whiteSpace=wrap;html=1;aspect=fixed;strokeColor=#36393d;fillColor=#cdeb8b;" parent="1" vertex="1">
          <mxGeometry x="698" y="330" width="80" height="80" as="geometry" />
        </mxCell>
        <mxCell id="T56QmzQmo5wIUWg2_XxA-5" value="RF Etcher&lt;br&gt;Tool&lt;br&gt;&amp;nbsp;Expert&lt;br&gt;SSM" style="ellipse;whiteSpace=wrap;html=1;aspect=fixed;strokeColor=#36393d;fillColor=#cdeb8b;" parent="1" vertex="1">
          <mxGeometry x="698" y="435" width="80" height="80" as="geometry" />
        </mxCell>
        <mxCell id="_PcQEO8d60qnSiy46h4H-2" style="edgeStyle=none;shape=connector;rounded=1;orthogonalLoop=1;jettySize=auto;html=1;entryX=0;entryY=0.5;entryDx=0;entryDy=0;labelBackgroundColor=default;strokeColor=#182E3E;fontFamily=Helvetica;fontSize=11;fontColor=#1A1A1A;startArrow=classic;startFill=1;endArrow=classic;" parent="1" source="_PcQEO8d60qnSiy46h4H-1" target="T56QmzQmo5wIUWg2_XxA-1" edge="1">
          <mxGeometry relative="1" as="geometry" />
        </mxCell>
        <mxCell id="_PcQEO8d60qnSiy46h4H-1" value="User" style="shape=umlActor;verticalLabelPosition=bottom;verticalAlign=top;html=1;outlineConnect=0;fontFamily=Helvetica;fontSize=11;" parent="1" vertex="1">
          <mxGeometry x="323" y="390" width="30" height="60" as="geometry" />
        </mxCell>
        <mxCell id="08VoG6ZB7hb07Z6NUy0W-1" value="OpenSSM Composability&lt;br&gt;&lt;font style=&quot;font-size: 14px;&quot;&gt;Easily combine domain knowledge with SSMs&lt;/font&gt;" style="rounded=0;whiteSpace=wrap;html=1;fontFamily=Helvetica;fontSize=20;shadow=1;glass=1;" parent="1" vertex="1">
          <mxGeometry x="345" y="620" width="410" height="60" as="geometry" />
        </mxCell>
      </root>
    </mxGraphModel>
  </diagram>
  <diagram id="ULFEi2hwU1WCmZeOF8yX" name="class-diagram">
    <mxGraphModel dx="1026" dy="772" grid="1" gridSize="10" guides="1" tooltips="1" connect="1" arrows="1" fold="1" page="1" pageScale="1" pageWidth="1100" pageHeight="850" math="0" shadow="0">
      <root>
        <mxCell id="0" />
        <mxCell id="1" parent="0" />
        <mxCell id="BKyhv98KqYZoipyMG5w0-1" style="shape=connector;rounded=1;orthogonalLoop=1;jettySize=auto;html=1;entryX=0;entryY=0.5;entryDx=0;entryDy=0;labelBackgroundColor=default;strokeColor=#182E3E;fontFamily=Helvetica;fontSize=11;fontColor=#1A1A1A;startArrow=none;startFill=0;endArrow=classic;exitX=1;exitY=0.5;exitDx=0;exitDy=0;edgeStyle=orthogonalEdgeStyle;" parent="1" source="BKyhv98KqYZoipyMG5w0-7" target="BKyhv98KqYZoipyMG5w0-10" edge="1">
          <mxGeometry relative="1" as="geometry" />
        </mxCell>
        <mxCell id="BKyhv98KqYZoipyMG5w0-2" value="has" style="edgeLabel;html=1;align=center;verticalAlign=middle;resizable=0;points=[];fontSize=11;fontFamily=Helvetica;fontColor=#1A1A1A;" parent="BKyhv98KqYZoipyMG5w0-1" vertex="1" connectable="0">
          <mxGeometry x="0.1892" y="3" relative="1" as="geometry">
            <mxPoint as="offset" />
          </mxGeometry>
        </mxCell>
        <mxCell id="BKyhv98KqYZoipyMG5w0-3" value="uses" style="edgeStyle=orthogonalEdgeStyle;shape=connector;rounded=1;orthogonalLoop=1;jettySize=auto;html=1;entryX=0.5;entryY=0;entryDx=0;entryDy=0;labelBackgroundColor=default;strokeColor=#182E3E;fontFamily=Helvetica;fontSize=11;fontColor=#1A1A1A;startArrow=none;startFill=0;endArrow=classic;" parent="1" source="BKyhv98KqYZoipyMG5w0-4" target="BKyhv98KqYZoipyMG5w0-62" edge="1">
          <mxGeometry relative="1" as="geometry" />
        </mxCell>
        <mxCell id="BKyhv98KqYZoipyMG5w0-4" value="AbstractSSM" style="swimlane;fontStyle=1;align=center;verticalAlign=top;childLayout=stackLayout;horizontal=1;startSize=26;horizontalStack=0;resizeParent=1;resizeParentMax=0;resizeLast=0;collapsible=1;marginBottom=0;whiteSpace=wrap;html=1;fontFamily=Helvetica;fontSize=11;fillColor=#eeeeee;strokeColor=#36393d;" parent="1" vertex="1">
          <mxGeometry x="80" y="360" width="160" height="120" as="geometry" />
        </mxCell>
        <mxCell id="BKyhv98KqYZoipyMG5w0-5" value="+ field: type" style="text;align=left;verticalAlign=top;spacingLeft=4;spacingRight=4;overflow=hidden;rotatable=0;points=[[0,0.5],[1,0.5]];portConstraint=eastwest;whiteSpace=wrap;html=1;fontSize=11;fontFamily=Helvetica;" parent="BKyhv98KqYZoipyMG5w0-4" vertex="1">
          <mxGeometry y="26" width="160" height="26" as="geometry" />
        </mxCell>
        <mxCell id="BKyhv98KqYZoipyMG5w0-6" value="" style="line;strokeWidth=1;align=left;verticalAlign=middle;spacingTop=-1;spacingLeft=3;spacingRight=3;rotatable=0;labelPosition=right;points=[];portConstraint=eastwest;fontFamily=Helvetica;fontSize=11;" parent="BKyhv98KqYZoipyMG5w0-4" vertex="1">
          <mxGeometry y="52" width="160" height="8" as="geometry" />
        </mxCell>
        <mxCell id="BKyhv98KqYZoipyMG5w0-7" value="get_slm()&lt;br&gt;get_adapter()&lt;br&gt;get_backends()" style="text;align=left;verticalAlign=top;spacingLeft=4;spacingRight=4;overflow=hidden;rotatable=0;points=[[0,0.5],[1,0.5]];portConstraint=eastwest;whiteSpace=wrap;html=1;fontSize=11;fontFamily=Helvetica;" parent="BKyhv98KqYZoipyMG5w0-4" vertex="1">
          <mxGeometry y="60" width="160" height="60" as="geometry" />
        </mxCell>
        <mxCell id="BKyhv98KqYZoipyMG5w0-8" value="has" style="shape=connector;rounded=1;orthogonalLoop=1;jettySize=auto;html=1;labelBackgroundColor=default;strokeColor=#182E3E;fontFamily=Helvetica;fontSize=11;fontColor=#1A1A1A;startArrow=none;startFill=0;endArrow=classic;entryX=0;entryY=0.5;entryDx=0;entryDy=0;exitX=1;exitY=0.5;exitDx=0;exitDy=0;edgeStyle=orthogonalEdgeStyle;" parent="1" source="BKyhv98KqYZoipyMG5w0-10" target="BKyhv98KqYZoipyMG5w0-14" edge="1">
          <mxGeometry relative="1" as="geometry" />
        </mxCell>
        <mxCell id="BKyhv98KqYZoipyMG5w0-9" value="AbstractSLM" style="swimlane;fontStyle=1;align=center;verticalAlign=top;childLayout=stackLayout;horizontal=1;startSize=26;horizontalStack=0;resizeParent=1;resizeParentMax=0;resizeLast=0;collapsible=1;marginBottom=0;whiteSpace=wrap;html=1;strokeColor=#36393d;fontFamily=Helvetica;fontSize=11;fillColor=#eeeeee;" parent="1" vertex="1">
          <mxGeometry x="320" y="480" width="160" height="100" as="geometry" />
        </mxCell>
        <mxCell id="BKyhv98KqYZoipyMG5w0-10" value="+ field: type" style="text;strokeColor=none;fillColor=none;align=left;verticalAlign=top;spacingLeft=4;spacingRight=4;overflow=hidden;rotatable=0;points=[[0,0.5],[1,0.5]];portConstraint=eastwest;whiteSpace=wrap;html=1;fontSize=11;fontFamily=Helvetica;fontColor=#1A1A1A;" parent="BKyhv98KqYZoipyMG5w0-9" vertex="1">
          <mxGeometry y="26" width="160" height="26" as="geometry" />
        </mxCell>
        <mxCell id="BKyhv98KqYZoipyMG5w0-11" value="" style="line;strokeWidth=1;fillColor=none;align=left;verticalAlign=middle;spacingTop=-1;spacingLeft=3;spacingRight=3;rotatable=0;labelPosition=right;points=[];portConstraint=eastwest;strokeColor=inherit;fontFamily=Helvetica;fontSize=11;fontColor=#1A1A1A;" parent="BKyhv98KqYZoipyMG5w0-9" vertex="1">
          <mxGeometry y="52" width="160" height="8" as="geometry" />
        </mxCell>
        <mxCell id="BKyhv98KqYZoipyMG5w0-12" value="get_adapter()&lt;br&gt;get_backends()" style="text;strokeColor=none;fillColor=none;align=left;verticalAlign=top;spacingLeft=4;spacingRight=4;overflow=hidden;rotatable=0;points=[[0,0.5],[1,0.5]];portConstraint=eastwest;whiteSpace=wrap;html=1;fontSize=11;fontFamily=Helvetica;fontColor=#1A1A1A;" parent="BKyhv98KqYZoipyMG5w0-9" vertex="1">
          <mxGeometry y="60" width="160" height="40" as="geometry" />
        </mxCell>
        <mxCell id="BKyhv98KqYZoipyMG5w0-13" value="AbstractAdapter" style="swimlane;fontStyle=1;align=center;verticalAlign=top;childLayout=stackLayout;horizontal=1;startSize=26;horizontalStack=0;resizeParent=1;resizeParentMax=0;resizeLast=0;collapsible=1;marginBottom=0;whiteSpace=wrap;html=1;strokeColor=#36393d;fontFamily=Helvetica;fontSize=11;fillColor=#eeeeee;" parent="1" vertex="1">
          <mxGeometry x="600" y="560" width="160" height="86" as="geometry" />
        </mxCell>
        <mxCell id="BKyhv98KqYZoipyMG5w0-14" value="+ field: type" style="text;strokeColor=none;fillColor=none;align=left;verticalAlign=top;spacingLeft=4;spacingRight=4;overflow=hidden;rotatable=0;points=[[0,0.5],[1,0.5]];portConstraint=eastwest;whiteSpace=wrap;html=1;fontSize=11;fontFamily=Helvetica;fontColor=#1A1A1A;" parent="BKyhv98KqYZoipyMG5w0-13" vertex="1">
          <mxGeometry y="26" width="160" height="26" as="geometry" />
        </mxCell>
        <mxCell id="BKyhv98KqYZoipyMG5w0-15" value="" style="line;strokeWidth=1;fillColor=none;align=left;verticalAlign=middle;spacingTop=-1;spacingLeft=3;spacingRight=3;rotatable=0;labelPosition=right;points=[];portConstraint=eastwest;strokeColor=inherit;fontFamily=Helvetica;fontSize=11;fontColor=#1A1A1A;" parent="BKyhv98KqYZoipyMG5w0-13" vertex="1">
          <mxGeometry y="52" width="160" height="8" as="geometry" />
        </mxCell>
        <mxCell id="BKyhv98KqYZoipyMG5w0-16" value="get_backends()" style="text;strokeColor=none;fillColor=none;align=left;verticalAlign=top;spacingLeft=4;spacingRight=4;overflow=hidden;rotatable=0;points=[[0,0.5],[1,0.5]];portConstraint=eastwest;whiteSpace=wrap;html=1;fontSize=11;fontFamily=Helvetica;fontColor=#1A1A1A;" parent="BKyhv98KqYZoipyMG5w0-13" vertex="1">
          <mxGeometry y="60" width="160" height="26" as="geometry" />
        </mxCell>
        <mxCell id="BKyhv98KqYZoipyMG5w0-17" value="AbstractBackend&lt;br&gt;" style="swimlane;fontStyle=1;align=center;verticalAlign=top;childLayout=stackLayout;horizontal=1;startSize=26;horizontalStack=0;resizeParent=1;resizeParentMax=0;resizeLast=0;collapsible=1;marginBottom=0;whiteSpace=wrap;html=1;strokeColor=#36393d;fontFamily=Helvetica;fontSize=11;fillColor=#eeeeee;" parent="1" vertex="1">
          <mxGeometry x="840" y="680" width="160" height="86" as="geometry" />
        </mxCell>
        <mxCell id="BKyhv98KqYZoipyMG5w0-18" value="+ field: type" style="text;strokeColor=none;fillColor=none;align=left;verticalAlign=top;spacingLeft=4;spacingRight=4;overflow=hidden;rotatable=0;points=[[0,0.5],[1,0.5]];portConstraint=eastwest;whiteSpace=wrap;html=1;fontSize=11;fontFamily=Helvetica;fontColor=#1A1A1A;" parent="BKyhv98KqYZoipyMG5w0-17" vertex="1">
          <mxGeometry y="26" width="160" height="26" as="geometry" />
        </mxCell>
        <mxCell id="BKyhv98KqYZoipyMG5w0-19" value="" style="line;strokeWidth=1;fillColor=none;align=left;verticalAlign=middle;spacingTop=-1;spacingLeft=3;spacingRight=3;rotatable=0;labelPosition=right;points=[];portConstraint=eastwest;strokeColor=inherit;fontFamily=Helvetica;fontSize=11;fontColor=#1A1A1A;" parent="BKyhv98KqYZoipyMG5w0-17" vertex="1">
          <mxGeometry y="52" width="160" height="8" as="geometry" />
        </mxCell>
        <mxCell id="BKyhv98KqYZoipyMG5w0-20" value="+ method(type): type" style="text;strokeColor=none;fillColor=none;align=left;verticalAlign=top;spacingLeft=4;spacingRight=4;overflow=hidden;rotatable=0;points=[[0,0.5],[1,0.5]];portConstraint=eastwest;whiteSpace=wrap;html=1;fontSize=11;fontFamily=Helvetica;fontColor=#1A1A1A;" parent="BKyhv98KqYZoipyMG5w0-17" vertex="1">
          <mxGeometry y="60" width="160" height="26" as="geometry" />
        </mxCell>
        <mxCell id="BKyhv98KqYZoipyMG5w0-21" value="has" style="shape=connector;rounded=1;orthogonalLoop=1;jettySize=auto;html=1;labelBackgroundColor=default;strokeColor=#182E3E;fontFamily=Helvetica;fontSize=11;fontColor=#1A1A1A;startArrow=none;startFill=0;endArrow=ERmany;endFill=0;entryX=0;entryY=0.5;entryDx=0;entryDy=0;exitX=1;exitY=0.5;exitDx=0;exitDy=0;edgeStyle=orthogonalEdgeStyle;" parent="1" source="BKyhv98KqYZoipyMG5w0-14" target="BKyhv98KqYZoipyMG5w0-18" edge="1">
          <mxGeometry relative="1" as="geometry">
            <mxPoint x="680" y="510" as="sourcePoint" />
            <mxPoint x="740" y="780" as="targetPoint" />
          </mxGeometry>
        </mxCell>
        <mxCell id="BKyhv98KqYZoipyMG5w0-22" style="edgeStyle=orthogonalEdgeStyle;shape=connector;rounded=1;orthogonalLoop=1;jettySize=auto;html=1;entryX=0.5;entryY=0;entryDx=0;entryDy=0;labelBackgroundColor=default;strokeColor=#182E3E;fontFamily=Helvetica;fontSize=11;fontColor=#1A1A1A;startArrow=none;startFill=0;endArrow=classic;" parent="1" source="BKyhv98KqYZoipyMG5w0-23" target="BKyhv98KqYZoipyMG5w0-4" edge="1">
          <mxGeometry relative="1" as="geometry" />
        </mxCell>
        <mxCell id="BKyhv98KqYZoipyMG5w0-23" value="BaseSSM" style="swimlane;fontStyle=1;align=center;verticalAlign=top;childLayout=stackLayout;horizontal=1;startSize=26;horizontalStack=0;resizeParent=1;resizeParentMax=0;resizeLast=0;collapsible=1;marginBottom=0;whiteSpace=wrap;html=1;strokeColor=#36393d;fontFamily=Helvetica;fontSize=11;fillColor=#cdeb8b;" parent="1" vertex="1">
          <mxGeometry x="80" y="260" width="160" height="60" as="geometry" />
        </mxCell>
        <mxCell id="BKyhv98KqYZoipyMG5w0-24" value="+ field: type" style="text;strokeColor=none;fillColor=none;align=left;verticalAlign=top;spacingLeft=4;spacingRight=4;overflow=hidden;rotatable=0;points=[[0,0.5],[1,0.5]];portConstraint=eastwest;whiteSpace=wrap;html=1;fontSize=11;fontFamily=Helvetica;fontColor=#1A1A1A;" parent="BKyhv98KqYZoipyMG5w0-23" vertex="1">
          <mxGeometry y="26" width="160" height="26" as="geometry" />
        </mxCell>
        <mxCell id="BKyhv98KqYZoipyMG5w0-25" value="" style="line;strokeWidth=1;fillColor=none;align=left;verticalAlign=middle;spacingTop=-1;spacingLeft=3;spacingRight=3;rotatable=0;labelPosition=right;points=[];portConstraint=eastwest;strokeColor=inherit;fontFamily=Helvetica;fontSize=11;fontColor=#1A1A1A;" parent="BKyhv98KqYZoipyMG5w0-23" vertex="1">
          <mxGeometry y="52" width="160" height="8" as="geometry" />
        </mxCell>
        <mxCell id="BKyhv98KqYZoipyMG5w0-26" style="edgeStyle=orthogonalEdgeStyle;shape=connector;rounded=1;orthogonalLoop=1;jettySize=auto;html=1;entryX=0.5;entryY=0;entryDx=0;entryDy=0;labelBackgroundColor=default;strokeColor=#182E3E;fontFamily=Helvetica;fontSize=11;fontColor=#1A1A1A;startArrow=none;startFill=0;endArrow=classic;" parent="1" source="BKyhv98KqYZoipyMG5w0-27" target="BKyhv98KqYZoipyMG5w0-9" edge="1">
          <mxGeometry relative="1" as="geometry" />
        </mxCell>
        <mxCell id="BKyhv98KqYZoipyMG5w0-27" value="BaseSLM" style="swimlane;fontStyle=1;align=center;verticalAlign=top;childLayout=stackLayout;horizontal=1;startSize=26;horizontalStack=0;resizeParent=1;resizeParentMax=0;resizeLast=0;collapsible=1;marginBottom=0;whiteSpace=wrap;html=1;strokeColor=#36393d;fontFamily=Helvetica;fontSize=11;fillColor=#cdeb8b;" parent="1" vertex="1">
          <mxGeometry x="320" y="380" width="160" height="60" as="geometry" />
        </mxCell>
        <mxCell id="BKyhv98KqYZoipyMG5w0-28" value="+ field: type" style="text;strokeColor=none;fillColor=none;align=left;verticalAlign=top;spacingLeft=4;spacingRight=4;overflow=hidden;rotatable=0;points=[[0,0.5],[1,0.5]];portConstraint=eastwest;whiteSpace=wrap;html=1;fontSize=11;fontFamily=Helvetica;fontColor=#1A1A1A;" parent="BKyhv98KqYZoipyMG5w0-27" vertex="1">
          <mxGeometry y="26" width="160" height="26" as="geometry" />
        </mxCell>
        <mxCell id="BKyhv98KqYZoipyMG5w0-29" value="" style="line;strokeWidth=1;fillColor=none;align=left;verticalAlign=middle;spacingTop=-1;spacingLeft=3;spacingRight=3;rotatable=0;labelPosition=right;points=[];portConstraint=eastwest;strokeColor=inherit;fontFamily=Helvetica;fontSize=11;fontColor=#1A1A1A;" parent="BKyhv98KqYZoipyMG5w0-27" vertex="1">
          <mxGeometry y="52" width="160" height="8" as="geometry" />
        </mxCell>
        <mxCell id="BKyhv98KqYZoipyMG5w0-30" style="edgeStyle=orthogonalEdgeStyle;shape=connector;rounded=1;orthogonalLoop=1;jettySize=auto;html=1;labelBackgroundColor=default;strokeColor=#182E3E;fontFamily=Helvetica;fontSize=11;fontColor=#1A1A1A;startArrow=none;startFill=0;endArrow=classic;" parent="1" source="BKyhv98KqYZoipyMG5w0-31" target="BKyhv98KqYZoipyMG5w0-13" edge="1">
          <mxGeometry relative="1" as="geometry" />
        </mxCell>
        <mxCell id="BKyhv98KqYZoipyMG5w0-31" value="BaseAdapter" style="swimlane;fontStyle=1;align=center;verticalAlign=top;childLayout=stackLayout;horizontal=1;startSize=26;horizontalStack=0;resizeParent=1;resizeParentMax=0;resizeLast=0;collapsible=1;marginBottom=0;whiteSpace=wrap;html=1;strokeColor=#36393d;fontFamily=Helvetica;fontSize=11;fillColor=#cdeb8b;" parent="1" vertex="1">
          <mxGeometry x="600" y="460" width="160" height="60" as="geometry" />
        </mxCell>
        <mxCell id="BKyhv98KqYZoipyMG5w0-32" value="+ field: type" style="text;strokeColor=none;fillColor=none;align=left;verticalAlign=top;spacingLeft=4;spacingRight=4;overflow=hidden;rotatable=0;points=[[0,0.5],[1,0.5]];portConstraint=eastwest;whiteSpace=wrap;html=1;fontSize=11;fontFamily=Helvetica;fontColor=#1A1A1A;" parent="BKyhv98KqYZoipyMG5w0-31" vertex="1">
          <mxGeometry y="26" width="160" height="26" as="geometry" />
        </mxCell>
        <mxCell id="BKyhv98KqYZoipyMG5w0-33" value="" style="line;strokeWidth=1;fillColor=none;align=left;verticalAlign=middle;spacingTop=-1;spacingLeft=3;spacingRight=3;rotatable=0;labelPosition=right;points=[];portConstraint=eastwest;strokeColor=inherit;fontFamily=Helvetica;fontSize=11;fontColor=#1A1A1A;" parent="BKyhv98KqYZoipyMG5w0-31" vertex="1">
          <mxGeometry y="52" width="160" height="8" as="geometry" />
        </mxCell>
        <mxCell id="BKyhv98KqYZoipyMG5w0-34" style="edgeStyle=orthogonalEdgeStyle;shape=connector;rounded=1;orthogonalLoop=1;jettySize=auto;html=1;exitX=0.5;exitY=1;exitDx=0;exitDy=0;entryX=0.5;entryY=0;entryDx=0;entryDy=0;labelBackgroundColor=default;strokeColor=#182E3E;fontFamily=Helvetica;fontSize=11;fontColor=#1A1A1A;startArrow=none;startFill=0;endArrow=classic;" parent="1" source="BKyhv98KqYZoipyMG5w0-35" target="BKyhv98KqYZoipyMG5w0-17" edge="1">
          <mxGeometry relative="1" as="geometry" />
        </mxCell>
        <mxCell id="BKyhv98KqYZoipyMG5w0-35" value="BaseBackend" style="swimlane;fontStyle=1;align=center;verticalAlign=top;childLayout=stackLayout;horizontal=1;startSize=26;horizontalStack=0;resizeParent=1;resizeParentMax=0;resizeLast=0;collapsible=1;marginBottom=0;whiteSpace=wrap;html=1;strokeColor=#36393d;fontFamily=Helvetica;fontSize=11;fillColor=#cdeb8b;" parent="1" vertex="1">
          <mxGeometry x="840" y="560" width="160" height="60" as="geometry" />
        </mxCell>
        <mxCell id="BKyhv98KqYZoipyMG5w0-36" value="+ field: type" style="text;strokeColor=none;fillColor=none;align=left;verticalAlign=top;spacingLeft=4;spacingRight=4;overflow=hidden;rotatable=0;points=[[0,0.5],[1,0.5]];portConstraint=eastwest;whiteSpace=wrap;html=1;fontSize=11;fontFamily=Helvetica;fontColor=#1A1A1A;" parent="BKyhv98KqYZoipyMG5w0-35" vertex="1">
          <mxGeometry y="26" width="160" height="26" as="geometry" />
        </mxCell>
        <mxCell id="BKyhv98KqYZoipyMG5w0-37" value="" style="line;strokeWidth=1;fillColor=none;align=left;verticalAlign=middle;spacingTop=-1;spacingLeft=3;spacingRight=3;rotatable=0;labelPosition=right;points=[];portConstraint=eastwest;strokeColor=inherit;fontFamily=Helvetica;fontSize=11;fontColor=#1A1A1A;" parent="BKyhv98KqYZoipyMG5w0-35" vertex="1">
          <mxGeometry y="52" width="160" height="8" as="geometry" />
        </mxCell>
        <mxCell id="BKyhv98KqYZoipyMG5w0-38" style="edgeStyle=orthogonalEdgeStyle;shape=connector;rounded=1;orthogonalLoop=1;jettySize=auto;html=1;entryX=0.5;entryY=0;entryDx=0;entryDy=0;labelBackgroundColor=default;strokeColor=#182E3E;fontFamily=Helvetica;fontSize=11;fontColor=#1A1A1A;startArrow=none;startFill=0;endArrow=classic;" parent="1" source="BKyhv98KqYZoipyMG5w0-39" target="BKyhv98KqYZoipyMG5w0-27" edge="1">
          <mxGeometry relative="1" as="geometry" />
        </mxCell>
        <mxCell id="BKyhv98KqYZoipyMG5w0-39" value="GPT3SLM" style="swimlane;fontStyle=1;align=center;verticalAlign=top;childLayout=stackLayout;horizontal=1;startSize=26;horizontalStack=0;resizeParent=1;resizeParentMax=0;resizeLast=0;collapsible=1;marginBottom=0;whiteSpace=wrap;html=1;strokeColor=#36393d;fontFamily=Helvetica;fontSize=11;fillColor=#cce5ff;" parent="1" vertex="1">
          <mxGeometry x="290" y="280" width="160" height="60" as="geometry" />
        </mxCell>
        <mxCell id="BKyhv98KqYZoipyMG5w0-40" value="+ field: type" style="text;strokeColor=none;fillColor=none;align=left;verticalAlign=top;spacingLeft=4;spacingRight=4;overflow=hidden;rotatable=0;points=[[0,0.5],[1,0.5]];portConstraint=eastwest;whiteSpace=wrap;html=1;fontSize=11;fontFamily=Helvetica;fontColor=#1A1A1A;" parent="BKyhv98KqYZoipyMG5w0-39" vertex="1">
          <mxGeometry y="26" width="160" height="26" as="geometry" />
        </mxCell>
        <mxCell id="BKyhv98KqYZoipyMG5w0-41" value="" style="line;strokeWidth=1;fillColor=none;align=left;verticalAlign=middle;spacingTop=-1;spacingLeft=3;spacingRight=3;rotatable=0;labelPosition=right;points=[];portConstraint=eastwest;strokeColor=inherit;fontFamily=Helvetica;fontSize=11;fontColor=#1A1A1A;" parent="BKyhv98KqYZoipyMG5w0-39" vertex="1">
          <mxGeometry y="52" width="160" height="8" as="geometry" />
        </mxCell>
        <mxCell id="BKyhv98KqYZoipyMG5w0-42" style="edgeStyle=orthogonalEdgeStyle;shape=connector;rounded=1;orthogonalLoop=1;jettySize=auto;html=1;exitX=0.75;exitY=1;exitDx=0;exitDy=0;entryX=0.5;entryY=0;entryDx=0;entryDy=0;labelBackgroundColor=default;strokeColor=#182E3E;fontFamily=Helvetica;fontSize=11;fontColor=#1A1A1A;startArrow=none;startFill=0;endArrow=classic;" parent="1" source="BKyhv98KqYZoipyMG5w0-43" target="BKyhv98KqYZoipyMG5w0-67" edge="1">
          <mxGeometry relative="1" as="geometry">
            <mxPoint x="545" y="270" as="targetPoint" />
            <Array as="points">
              <mxPoint x="560" y="180" />
            </Array>
          </mxGeometry>
        </mxCell>
        <mxCell id="BKyhv98KqYZoipyMG5w0-43" value="Falcon7SLM" style="swimlane;fontStyle=1;align=center;verticalAlign=top;childLayout=stackLayout;horizontal=1;startSize=26;horizontalStack=0;resizeParent=1;resizeParentMax=0;resizeLast=0;collapsible=1;marginBottom=0;whiteSpace=wrap;html=1;strokeColor=#36393d;fontFamily=Helvetica;fontSize=11;fillColor=#cce5ff;" parent="1" vertex="1">
          <mxGeometry x="480" y="120" width="160" height="60" as="geometry" />
        </mxCell>
        <mxCell id="BKyhv98KqYZoipyMG5w0-44" value="+ field: type" style="text;strokeColor=none;fillColor=none;align=left;verticalAlign=top;spacingLeft=4;spacingRight=4;overflow=hidden;rotatable=0;points=[[0,0.5],[1,0.5]];portConstraint=eastwest;whiteSpace=wrap;html=1;fontSize=11;fontFamily=Helvetica;fontColor=#1A1A1A;" parent="BKyhv98KqYZoipyMG5w0-43" vertex="1">
          <mxGeometry y="26" width="160" height="26" as="geometry" />
        </mxCell>
        <mxCell id="BKyhv98KqYZoipyMG5w0-45" value="" style="line;strokeWidth=1;fillColor=none;align=left;verticalAlign=middle;spacingTop=-1;spacingLeft=3;spacingRight=3;rotatable=0;labelPosition=right;points=[];portConstraint=eastwest;strokeColor=inherit;fontFamily=Helvetica;fontSize=11;fontColor=#1A1A1A;" parent="BKyhv98KqYZoipyMG5w0-43" vertex="1">
          <mxGeometry y="52" width="160" height="8" as="geometry" />
        </mxCell>
        <mxCell id="BKyhv98KqYZoipyMG5w0-46" style="edgeStyle=orthogonalEdgeStyle;shape=connector;rounded=1;orthogonalLoop=1;jettySize=auto;html=1;entryX=0.5;entryY=0;entryDx=0;entryDy=0;labelBackgroundColor=default;strokeColor=#182E3E;fontFamily=Helvetica;fontSize=11;fontColor=#1A1A1A;startArrow=none;startFill=0;endArrow=classic;" parent="1" source="BKyhv98KqYZoipyMG5w0-47" target="BKyhv98KqYZoipyMG5w0-31" edge="1">
          <mxGeometry relative="1" as="geometry" />
        </mxCell>
        <mxCell id="BKyhv98KqYZoipyMG5w0-47" value="LlamaIndexAdapter" style="swimlane;fontStyle=1;align=center;verticalAlign=top;childLayout=stackLayout;horizontal=1;startSize=26;horizontalStack=0;resizeParent=1;resizeParentMax=0;resizeLast=0;collapsible=1;marginBottom=0;whiteSpace=wrap;html=1;strokeColor=#36393d;fontFamily=Helvetica;fontSize=11;fillColor=#cce5ff;" parent="1" vertex="1">
          <mxGeometry x="600" y="360" width="160" height="60" as="geometry" />
        </mxCell>
        <mxCell id="BKyhv98KqYZoipyMG5w0-48" value="+ field: type" style="text;strokeColor=none;fillColor=none;align=left;verticalAlign=top;spacingLeft=4;spacingRight=4;overflow=hidden;rotatable=0;points=[[0,0.5],[1,0.5]];portConstraint=eastwest;whiteSpace=wrap;html=1;fontSize=11;fontFamily=Helvetica;fontColor=#1A1A1A;" parent="BKyhv98KqYZoipyMG5w0-47" vertex="1">
          <mxGeometry y="26" width="160" height="26" as="geometry" />
        </mxCell>
        <mxCell id="BKyhv98KqYZoipyMG5w0-49" value="" style="line;strokeWidth=1;fillColor=none;align=left;verticalAlign=middle;spacingTop=-1;spacingLeft=3;spacingRight=3;rotatable=0;labelPosition=right;points=[];portConstraint=eastwest;strokeColor=inherit;fontFamily=Helvetica;fontSize=11;fontColor=#1A1A1A;" parent="BKyhv98KqYZoipyMG5w0-47" vertex="1">
          <mxGeometry y="52" width="160" height="8" as="geometry" />
        </mxCell>
        <mxCell id="BKyhv98KqYZoipyMG5w0-50" style="edgeStyle=orthogonalEdgeStyle;shape=connector;rounded=1;orthogonalLoop=1;jettySize=auto;html=1;exitX=0.5;exitY=1;exitDx=0;exitDy=0;entryX=0.5;entryY=0;entryDx=0;entryDy=0;labelBackgroundColor=default;strokeColor=#182E3E;fontFamily=Helvetica;fontSize=11;fontColor=#1A1A1A;startArrow=none;startFill=0;endArrow=classic;" parent="1" source="BKyhv98KqYZoipyMG5w0-51" target="BKyhv98KqYZoipyMG5w0-35" edge="1">
          <mxGeometry relative="1" as="geometry" />
        </mxCell>
        <mxCell id="BKyhv98KqYZoipyMG5w0-51" value="LlamaIndexBackend" style="swimlane;fontStyle=1;align=center;verticalAlign=top;childLayout=stackLayout;horizontal=1;startSize=26;horizontalStack=0;resizeParent=1;resizeParentMax=0;resizeLast=0;collapsible=1;marginBottom=0;whiteSpace=wrap;html=1;strokeColor=#36393d;fontFamily=Helvetica;fontSize=11;fillColor=#cce5ff;" parent="1" vertex="1">
          <mxGeometry x="840" y="460" width="160" height="60" as="geometry" />
        </mxCell>
        <mxCell id="BKyhv98KqYZoipyMG5w0-52" value="+ field: type" style="text;strokeColor=none;fillColor=none;align=left;verticalAlign=top;spacingLeft=4;spacingRight=4;overflow=hidden;rotatable=0;points=[[0,0.5],[1,0.5]];portConstraint=eastwest;whiteSpace=wrap;html=1;fontSize=11;fontFamily=Helvetica;fontColor=#1A1A1A;" parent="BKyhv98KqYZoipyMG5w0-51" vertex="1">
          <mxGeometry y="26" width="160" height="26" as="geometry" />
        </mxCell>
        <mxCell id="BKyhv98KqYZoipyMG5w0-53" value="" style="line;strokeWidth=1;fillColor=none;align=left;verticalAlign=middle;spacingTop=-1;spacingLeft=3;spacingRight=3;rotatable=0;labelPosition=right;points=[];portConstraint=eastwest;strokeColor=inherit;fontFamily=Helvetica;fontSize=11;fontColor=#1A1A1A;" parent="BKyhv98KqYZoipyMG5w0-51" vertex="1">
          <mxGeometry y="52" width="160" height="8" as="geometry" />
        </mxCell>
        <mxCell id="BKyhv98KqYZoipyMG5w0-54" style="edgeStyle=orthogonalEdgeStyle;shape=connector;rounded=1;orthogonalLoop=1;jettySize=auto;html=1;labelBackgroundColor=default;strokeColor=#182E3E;fontFamily=Helvetica;fontSize=11;fontColor=#1A1A1A;startArrow=none;startFill=0;endArrow=classic;" parent="1" source="BKyhv98KqYZoipyMG5w0-55" target="BKyhv98KqYZoipyMG5w0-23" edge="1">
          <mxGeometry relative="1" as="geometry" />
        </mxCell>
        <mxCell id="BKyhv98KqYZoipyMG5w0-55" value="GPT3SSM" style="swimlane;fontStyle=1;align=center;verticalAlign=top;childLayout=stackLayout;horizontal=1;startSize=26;horizontalStack=0;resizeParent=1;resizeParentMax=0;resizeLast=0;collapsible=1;marginBottom=0;whiteSpace=wrap;html=1;strokeColor=#36393d;fontFamily=Helvetica;fontSize=11;fillColor=#ffcc99;" parent="1" vertex="1">
          <mxGeometry x="80" y="160" width="160" height="60" as="geometry" />
        </mxCell>
        <mxCell id="BKyhv98KqYZoipyMG5w0-56" value="+ field: type" style="text;strokeColor=none;fillColor=none;align=left;verticalAlign=top;spacingLeft=4;spacingRight=4;overflow=hidden;rotatable=0;points=[[0,0.5],[1,0.5]];portConstraint=eastwest;whiteSpace=wrap;html=1;fontSize=11;fontFamily=Helvetica;fontColor=#1A1A1A;" parent="BKyhv98KqYZoipyMG5w0-55" vertex="1">
          <mxGeometry y="26" width="160" height="26" as="geometry" />
        </mxCell>
        <mxCell id="BKyhv98KqYZoipyMG5w0-57" value="" style="line;strokeWidth=1;fillColor=none;align=left;verticalAlign=middle;spacingTop=-1;spacingLeft=3;spacingRight=3;rotatable=0;labelPosition=right;points=[];portConstraint=eastwest;strokeColor=inherit;fontFamily=Helvetica;fontSize=11;fontColor=#1A1A1A;" parent="BKyhv98KqYZoipyMG5w0-55" vertex="1">
          <mxGeometry y="52" width="160" height="8" as="geometry" />
        </mxCell>
        <mxCell id="BKyhv98KqYZoipyMG5w0-58" style="edgeStyle=orthogonalEdgeStyle;shape=connector;rounded=1;orthogonalLoop=1;jettySize=auto;html=1;exitX=0.75;exitY=1;exitDx=0;exitDy=0;entryX=0.75;entryY=0;entryDx=0;entryDy=0;labelBackgroundColor=default;strokeColor=#182E3E;fontFamily=Helvetica;fontSize=11;fontColor=#1A1A1A;startArrow=none;startFill=0;endArrow=classic;" parent="1" source="BKyhv98KqYZoipyMG5w0-59" target="BKyhv98KqYZoipyMG5w0-23" edge="1">
          <mxGeometry relative="1" as="geometry" />
        </mxCell>
        <mxCell id="BKyhv98KqYZoipyMG5w0-59" value="Falcon7SSM" style="swimlane;fontStyle=1;align=center;verticalAlign=top;childLayout=stackLayout;horizontal=1;startSize=26;horizontalStack=0;resizeParent=1;resizeParentMax=0;resizeLast=0;collapsible=1;marginBottom=0;whiteSpace=wrap;html=1;strokeColor=#36393d;fontFamily=Helvetica;fontSize=11;fillColor=#ffcc99;" parent="1" vertex="1">
          <mxGeometry x="80" y="80" width="160" height="60" as="geometry" />
        </mxCell>
        <mxCell id="BKyhv98KqYZoipyMG5w0-60" value="+ field: type" style="text;strokeColor=none;fillColor=none;align=left;verticalAlign=top;spacingLeft=4;spacingRight=4;overflow=hidden;rotatable=0;points=[[0,0.5],[1,0.5]];portConstraint=eastwest;whiteSpace=wrap;html=1;fontSize=11;fontFamily=Helvetica;fontColor=#1A1A1A;" parent="BKyhv98KqYZoipyMG5w0-59" vertex="1">
          <mxGeometry y="26" width="160" height="26" as="geometry" />
        </mxCell>
        <mxCell id="BKyhv98KqYZoipyMG5w0-61" value="" style="line;strokeWidth=1;fillColor=none;align=left;verticalAlign=middle;spacingTop=-1;spacingLeft=3;spacingRight=3;rotatable=0;labelPosition=right;points=[];portConstraint=eastwest;strokeColor=inherit;fontFamily=Helvetica;fontSize=11;fontColor=#1A1A1A;" parent="BKyhv98KqYZoipyMG5w0-59" vertex="1">
          <mxGeometry y="52" width="160" height="8" as="geometry" />
        </mxCell>
        <mxCell id="BKyhv98KqYZoipyMG5w0-62" value="ConversationMemory" style="swimlane;fontStyle=1;align=center;verticalAlign=top;childLayout=stackLayout;horizontal=1;startSize=26;horizontalStack=0;resizeParent=1;resizeParentMax=0;resizeLast=0;collapsible=1;marginBottom=0;whiteSpace=wrap;html=1;strokeColor=#36393d;fontFamily=Helvetica;fontSize=11;fillColor=#ffff88;" parent="1" vertex="1">
          <mxGeometry x="80" y="560" width="160" height="86" as="geometry" />
        </mxCell>
        <mxCell id="BKyhv98KqYZoipyMG5w0-63" value="+ field: type" style="text;strokeColor=none;fillColor=none;align=left;verticalAlign=top;spacingLeft=4;spacingRight=4;overflow=hidden;rotatable=0;points=[[0,0.5],[1,0.5]];portConstraint=eastwest;whiteSpace=wrap;html=1;fontSize=11;fontFamily=Helvetica;fontColor=#1A1A1A;" parent="BKyhv98KqYZoipyMG5w0-62" vertex="1">
          <mxGeometry y="26" width="160" height="26" as="geometry" />
        </mxCell>
        <mxCell id="BKyhv98KqYZoipyMG5w0-64" value="" style="line;strokeWidth=1;fillColor=none;align=left;verticalAlign=middle;spacingTop=-1;spacingLeft=3;spacingRight=3;rotatable=0;labelPosition=right;points=[];portConstraint=eastwest;strokeColor=inherit;fontFamily=Helvetica;fontSize=11;fontColor=#1A1A1A;" parent="BKyhv98KqYZoipyMG5w0-62" vertex="1">
          <mxGeometry y="52" width="160" height="8" as="geometry" />
        </mxCell>
        <mxCell id="BKyhv98KqYZoipyMG5w0-65" value="+ method(type): type" style="text;strokeColor=none;fillColor=none;align=left;verticalAlign=top;spacingLeft=4;spacingRight=4;overflow=hidden;rotatable=0;points=[[0,0.5],[1,0.5]];portConstraint=eastwest;whiteSpace=wrap;html=1;fontSize=11;fontFamily=Helvetica;fontColor=#1A1A1A;" parent="BKyhv98KqYZoipyMG5w0-62" vertex="1">
          <mxGeometry y="60" width="160" height="26" as="geometry" />
        </mxCell>
        <mxCell id="BKyhv98KqYZoipyMG5w0-66" value="OpenSSM High-Level Class Diagram&lt;br&gt;&lt;font style=&quot;font-size: 14px;&quot;&gt;SSM = SLM → Adapter → Backends&lt;/font&gt;" style="rounded=0;whiteSpace=wrap;html=1;fontFamily=Helvetica;fontSize=20;shadow=1;glass=1;" parent="1" vertex="1">
          <mxGeometry x="680" y="70" width="410" height="60" as="geometry" />
        </mxCell>
        <mxCell id="BKyhv98KqYZoipyMG5w0-67" value="HuggingFaceSLM" style="swimlane;fontStyle=1;align=center;verticalAlign=top;childLayout=stackLayout;horizontal=1;startSize=26;horizontalStack=0;resizeParent=1;resizeParentMax=0;resizeLast=0;collapsible=1;marginBottom=0;whiteSpace=wrap;html=1;strokeColor=#36393d;fontFamily=Helvetica;fontSize=11;fillColor=#cce5ff;" parent="1" vertex="1">
          <mxGeometry x="480" y="280" width="160" height="60" as="geometry" />
        </mxCell>
        <mxCell id="BKyhv98KqYZoipyMG5w0-68" value="+ field: type" style="text;strokeColor=none;fillColor=none;align=left;verticalAlign=top;spacingLeft=4;spacingRight=4;overflow=hidden;rotatable=0;points=[[0,0.5],[1,0.5]];portConstraint=eastwest;whiteSpace=wrap;html=1;fontSize=11;fontFamily=Helvetica;fontColor=#1A1A1A;" parent="BKyhv98KqYZoipyMG5w0-67" vertex="1">
          <mxGeometry y="26" width="160" height="26" as="geometry" />
        </mxCell>
        <mxCell id="BKyhv98KqYZoipyMG5w0-69" value="" style="line;strokeWidth=1;fillColor=none;align=left;verticalAlign=middle;spacingTop=-1;spacingLeft=3;spacingRight=3;rotatable=0;labelPosition=right;points=[];portConstraint=eastwest;strokeColor=inherit;fontFamily=Helvetica;fontSize=11;fontColor=#1A1A1A;" parent="BKyhv98KqYZoipyMG5w0-67" vertex="1">
          <mxGeometry y="52" width="160" height="8" as="geometry" />
        </mxCell>
        <mxCell id="BKyhv98KqYZoipyMG5w0-70" style="edgeStyle=orthogonalEdgeStyle;shape=connector;rounded=1;orthogonalLoop=1;jettySize=auto;html=1;entryX=0.75;entryY=0;entryDx=0;entryDy=0;labelBackgroundColor=default;strokeColor=#182E3E;fontFamily=Helvetica;fontSize=11;fontColor=#1A1A1A;startArrow=none;startFill=0;endArrow=classic;exitX=0.5;exitY=1;exitDx=0;exitDy=0;" parent="1" source="BKyhv98KqYZoipyMG5w0-67" target="BKyhv98KqYZoipyMG5w0-27" edge="1">
          <mxGeometry relative="1" as="geometry">
            <mxPoint x="500" y="380" as="sourcePoint" />
            <mxPoint x="530" y="420" as="targetPoint" />
          </mxGeometry>
        </mxCell>
      </root>
    </mxGraphModel>
  </diagram>
  <diagram id="hVbM4MH9zm1sGRb8YKmp" name="llama-index-integration">
    <mxGraphModel dx="1026" dy="772" grid="1" gridSize="10" guides="1" tooltips="1" connect="1" arrows="1" fold="1" page="1" pageScale="1" pageWidth="1100" pageHeight="850" math="0" shadow="0">
      <root>
        <mxCell id="0" />
        <mxCell id="1" parent="0" />
        <mxCell id="XnWJ6M8mAL7L7lAcAVbl-2" value="openssm internal" style="edgeStyle=none;shape=connector;rounded=1;orthogonalLoop=1;jettySize=auto;html=1;entryX=0;entryY=0.5;entryDx=0;entryDy=0;labelBackgroundColor=default;strokeColor=#182E3E;fontFamily=Helvetica;fontSize=11;fontColor=#1A1A1A;startArrow=classic;startFill=1;endArrow=classic;" parent="1" source="XnWJ6M8mAL7L7lAcAVbl-3" target="XnWJ6M8mAL7L7lAcAVbl-10" edge="1">
          <mxGeometry relative="1" as="geometry" />
        </mxCell>
        <mxCell id="XnWJ6M8mAL7L7lAcAVbl-3" value="&amp;lt;&amp;lt;slm&amp;gt;&amp;gt;&lt;br&gt;&lt;br&gt;(Small Language Model)" style="ellipse;whiteSpace=wrap;html=1;aspect=fixed;strokeColor=#d79b00;fontFamily=Helvetica;fontSize=11;fillColor=#ffe6cc;" parent="1" vertex="1">
          <mxGeometry x="273" y="356" width="105" height="105" as="geometry" />
        </mxCell>
        <mxCell id="XnWJ6M8mAL7L7lAcAVbl-4" value="openssm internal" style="edgeStyle=none;shape=connector;rounded=1;orthogonalLoop=1;jettySize=auto;html=1;entryX=0;entryY=0.5;entryDx=0;entryDy=0;labelBackgroundColor=default;strokeColor=#182E3E;fontFamily=Helvetica;fontSize=11;fontColor=#1A1A1A;startArrow=classic;startFill=1;endArrow=classic;" parent="1" source="XnWJ6M8mAL7L7lAcAVbl-10" target="XnWJ6M8mAL7L7lAcAVbl-11" edge="1">
          <mxGeometry relative="1" as="geometry" />
        </mxCell>
        <mxCell id="XnWJ6M8mAL7L7lAcAVbl-25" value="llama-index API" style="edgeStyle=orthogonalEdgeStyle;rounded=0;orthogonalLoop=1;jettySize=auto;html=1;entryX=0.5;entryY=0;entryDx=0;entryDy=0;" parent="1" source="XnWJ6M8mAL7L7lAcAVbl-10" target="XnWJ6M8mAL7L7lAcAVbl-23" edge="1">
          <mxGeometry relative="1" as="geometry" />
        </mxCell>
        <mxCell id="XnWJ6M8mAL7L7lAcAVbl-10" value="&amp;lt;&amp;lt;adapter&amp;gt;&amp;gt;&lt;br&gt;&lt;br&gt;LlamaIndex&lt;br&gt;Adapter" style="shape=step;perimeter=stepPerimeter;whiteSpace=wrap;html=1;fixedSize=1;strokeColor=#d79b00;fontFamily=Helvetica;fontSize=11;fillColor=#ffe6cc;" parent="1" vertex="1">
          <mxGeometry x="503" y="368.5" width="160" height="80" as="geometry" />
        </mxCell>
        <mxCell id="XnWJ6M8mAL7L7lAcAVbl-24" value="data-source-speciific API" style="edgeStyle=orthogonalEdgeStyle;rounded=0;orthogonalLoop=1;jettySize=auto;html=1;entryX=0.5;entryY=0;entryDx=0;entryDy=0;" parent="1" source="XnWJ6M8mAL7L7lAcAVbl-11" target="XnWJ6M8mAL7L7lAcAVbl-22" edge="1">
          <mxGeometry relative="1" as="geometry" />
        </mxCell>
        <mxCell id="XnWJ6M8mAL7L7lAcAVbl-43" style="rounded=0;orthogonalLoop=1;jettySize=auto;html=1;entryX=0;entryY=0.5;entryDx=0;entryDy=0;edgeStyle=orthogonalEdgeStyle;" parent="1" source="XnWJ6M8mAL7L7lAcAVbl-11" target="XnWJ6M8mAL7L7lAcAVbl-41" edge="1">
          <mxGeometry relative="1" as="geometry">
            <Array as="points">
              <mxPoint x="893" y="310" />
            </Array>
          </mxGeometry>
        </mxCell>
        <mxCell id="XnWJ6M8mAL7L7lAcAVbl-44" style="rounded=0;orthogonalLoop=1;jettySize=auto;html=1;entryX=1;entryY=0.5;entryDx=0;entryDy=0;edgeStyle=orthogonalEdgeStyle;" parent="1" source="XnWJ6M8mAL7L7lAcAVbl-11" target="XnWJ6M8mAL7L7lAcAVbl-40" edge="1">
          <mxGeometry relative="1" as="geometry">
            <Array as="points">
              <mxPoint x="893" y="230" />
            </Array>
          </mxGeometry>
        </mxCell>
        <mxCell id="XnWJ6M8mAL7L7lAcAVbl-45" style="edgeStyle=orthogonalEdgeStyle;rounded=0;orthogonalLoop=1;jettySize=auto;html=1;entryX=1;entryY=0.5;entryDx=0;entryDy=0;" parent="1" source="XnWJ6M8mAL7L7lAcAVbl-11" target="XnWJ6M8mAL7L7lAcAVbl-39" edge="1">
          <mxGeometry relative="1" as="geometry">
            <Array as="points">
              <mxPoint x="893" y="150" />
            </Array>
          </mxGeometry>
        </mxCell>
        <mxCell id="XnWJ6M8mAL7L7lAcAVbl-11" value="&amp;lt;&amp;lt;backend&amp;gt;&amp;gt;&lt;br&gt;&lt;br&gt;Knowledge Backend" style="rounded=0;whiteSpace=wrap;html=1;strokeColor=#d79b00;fontFamily=Helvetica;fontSize=11;fillColor=#ffe6cc;" parent="1" vertex="1">
          <mxGeometry x="813" y="366" width="160" height="85" as="geometry" />
        </mxCell>
        <mxCell id="XnWJ6M8mAL7L7lAcAVbl-18" style="edgeStyle=none;shape=connector;rounded=1;orthogonalLoop=1;jettySize=auto;html=1;entryX=0;entryY=0.5;entryDx=0;entryDy=0;labelBackgroundColor=default;strokeColor=#182E3E;fontFamily=Helvetica;fontSize=11;fontColor=#1A1A1A;startArrow=classic;startFill=1;endArrow=classic;" parent="1" source="XnWJ6M8mAL7L7lAcAVbl-19" target="XnWJ6M8mAL7L7lAcAVbl-3" edge="1">
          <mxGeometry relative="1" as="geometry">
            <mxPoint x="448" y="448.5" as="targetPoint" />
          </mxGeometry>
        </mxCell>
        <mxCell id="XnWJ6M8mAL7L7lAcAVbl-19" value="User" style="shape=umlActor;verticalLabelPosition=bottom;verticalAlign=top;html=1;outlineConnect=0;fontFamily=Helvetica;fontSize=11;" parent="1" vertex="1">
          <mxGeometry x="128" y="378.5" width="30" height="60" as="geometry" />
        </mxCell>
        <mxCell id="XnWJ6M8mAL7L7lAcAVbl-20" value="OpenSSM LlamaIndex Integration&lt;br&gt;&lt;font style=&quot;font-size: 14px;&quot;&gt;SLM → Adapter → Backends&lt;/font&gt;" style="rounded=0;whiteSpace=wrap;html=1;fontFamily=Helvetica;fontSize=20;shadow=1;glass=1;" parent="1" vertex="1">
          <mxGeometry x="113" y="160" width="410" height="60" as="geometry" />
        </mxCell>
        <mxCell id="XnWJ6M8mAL7L7lAcAVbl-37" style="edgeStyle=orthogonalEdgeStyle;rounded=0;orthogonalLoop=1;jettySize=auto;html=1;entryX=0.5;entryY=0;entryDx=0;entryDy=0;" parent="1" source="XnWJ6M8mAL7L7lAcAVbl-22" target="XnWJ6M8mAL7L7lAcAVbl-28" edge="1">
          <mxGeometry relative="1" as="geometry" />
        </mxCell>
        <mxCell id="XnWJ6M8mAL7L7lAcAVbl-22" value="&amp;lt;&amp;lt;data&amp;gt;&amp;gt;&lt;br&gt;&lt;br&gt;Data Source" style="rounded=0;whiteSpace=wrap;html=1;strokeColor=#6c8ebf;fontFamily=Helvetica;fontSize=11;fillColor=#dae8fc;" parent="1" vertex="1">
          <mxGeometry x="813" y="543.5" width="160" height="85" as="geometry" />
        </mxCell>
        <mxCell id="XnWJ6M8mAL7L7lAcAVbl-26" value="llama-index internal" style="edgeStyle=orthogonalEdgeStyle;rounded=0;orthogonalLoop=1;jettySize=auto;html=1;entryX=0;entryY=0.5;entryDx=0;entryDy=0;" parent="1" source="XnWJ6M8mAL7L7lAcAVbl-23" target="XnWJ6M8mAL7L7lAcAVbl-22" edge="1">
          <mxGeometry relative="1" as="geometry" />
        </mxCell>
        <mxCell id="XnWJ6M8mAL7L7lAcAVbl-23" value="&amp;lt;&amp;lt;llama_index&amp;gt;&amp;gt;&lt;br&gt;&lt;br&gt;LlamaIndex" style="rounded=0;whiteSpace=wrap;html=1;strokeColor=#6c8ebf;fontFamily=Helvetica;fontSize=11;fillColor=#dae8fc;" parent="1" vertex="1">
          <mxGeometry x="503" y="543.5" width="160" height="85" as="geometry" />
        </mxCell>
        <mxCell id="XnWJ6M8mAL7L7lAcAVbl-35" style="edgeStyle=orthogonalEdgeStyle;rounded=0;orthogonalLoop=1;jettySize=auto;html=1;exitX=0;exitY=0.5;exitDx=0;exitDy=0;entryX=1;entryY=0.5;entryDx=0;entryDy=0;" parent="1" source="XnWJ6M8mAL7L7lAcAVbl-28" target="XnWJ6M8mAL7L7lAcAVbl-29" edge="1">
          <mxGeometry relative="1" as="geometry" />
        </mxCell>
        <mxCell id="XnWJ6M8mAL7L7lAcAVbl-28" value="Documents" style="shape=document;whiteSpace=wrap;html=1;boundedLbl=1;fillColor=#dae8fc;strokeColor=#6c8ebf;" parent="1" vertex="1">
          <mxGeometry x="843" y="670" width="100" height="60" as="geometry" />
        </mxCell>
        <mxCell id="XnWJ6M8mAL7L7lAcAVbl-36" style="edgeStyle=orthogonalEdgeStyle;rounded=0;orthogonalLoop=1;jettySize=auto;html=1;exitX=0;exitY=0.5;exitDx=0;exitDy=0;entryX=0;entryY=0;entryDx=120;entryDy=30;entryPerimeter=0;" parent="1" source="XnWJ6M8mAL7L7lAcAVbl-29" target="XnWJ6M8mAL7L7lAcAVbl-34" edge="1">
          <mxGeometry relative="1" as="geometry">
            <mxPoint x="658" y="720" as="targetPoint" />
          </mxGeometry>
        </mxCell>
        <mxCell id="XnWJ6M8mAL7L7lAcAVbl-29" value="Indices" style="shape=internalStorage;whiteSpace=wrap;html=1;backgroundOutline=1;align=center;verticalAlign=top;fillColor=#dae8fc;strokeColor=#6c8ebf;" parent="1" vertex="1">
          <mxGeometry x="688" y="670" width="100" height="60" as="geometry" />
        </mxCell>
        <mxCell id="XnWJ6M8mAL7L7lAcAVbl-38" style="edgeStyle=orthogonalEdgeStyle;rounded=0;orthogonalLoop=1;jettySize=auto;html=1;entryX=0.5;entryY=1;entryDx=0;entryDy=0;" parent="1" source="XnWJ6M8mAL7L7lAcAVbl-34" target="XnWJ6M8mAL7L7lAcAVbl-23" edge="1">
          <mxGeometry relative="1" as="geometry" />
        </mxCell>
        <mxCell id="XnWJ6M8mAL7L7lAcAVbl-34" value="Queries" style="shape=callout;whiteSpace=wrap;html=1;perimeter=calloutPerimeter;fillColor=#dae8fc;strokeColor=#6c8ebf;" parent="1" vertex="1">
          <mxGeometry x="523" y="670" width="120" height="90" as="geometry" />
        </mxCell>
        <mxCell id="XnWJ6M8mAL7L7lAcAVbl-46" style="edgeStyle=orthogonalEdgeStyle;rounded=0;orthogonalLoop=1;jettySize=auto;html=1;entryX=0.5;entryY=0;entryDx=0;entryDy=0;" parent="1" source="XnWJ6M8mAL7L7lAcAVbl-39" target="XnWJ6M8mAL7L7lAcAVbl-10" edge="1">
          <mxGeometry relative="1" as="geometry" />
        </mxCell>
        <mxCell id="XnWJ6M8mAL7L7lAcAVbl-39" value="Facts" style="shape=document;whiteSpace=wrap;html=1;boundedLbl=1;fillColor=#ffe6cc;strokeColor=#d79b00;" parent="1" vertex="1">
          <mxGeometry x="688" y="120" width="100" height="60" as="geometry" />
        </mxCell>
        <mxCell id="XnWJ6M8mAL7L7lAcAVbl-47" style="edgeStyle=orthogonalEdgeStyle;rounded=0;orthogonalLoop=1;jettySize=auto;html=1;entryX=0.5;entryY=0;entryDx=0;entryDy=0;" parent="1" source="XnWJ6M8mAL7L7lAcAVbl-40" target="XnWJ6M8mAL7L7lAcAVbl-10" edge="1">
          <mxGeometry relative="1" as="geometry">
            <mxPoint x="658" y="230" as="targetPoint" />
          </mxGeometry>
        </mxCell>
        <mxCell id="XnWJ6M8mAL7L7lAcAVbl-40" value="Heuristics" style="shape=document;whiteSpace=wrap;html=1;boundedLbl=1;fillColor=#ffe6cc;strokeColor=#d79b00;" parent="1" vertex="1">
          <mxGeometry x="688" y="200" width="100" height="60" as="geometry" />
        </mxCell>
        <mxCell id="XnWJ6M8mAL7L7lAcAVbl-48" style="edgeStyle=orthogonalEdgeStyle;rounded=0;orthogonalLoop=1;jettySize=auto;html=1;entryX=0.5;entryY=0;entryDx=0;entryDy=0;" parent="1" source="XnWJ6M8mAL7L7lAcAVbl-41" target="XnWJ6M8mAL7L7lAcAVbl-10" edge="1">
          <mxGeometry relative="1" as="geometry">
            <mxPoint x="518" y="320" as="targetPoint" />
          </mxGeometry>
        </mxCell>
        <mxCell id="XnWJ6M8mAL7L7lAcAVbl-41" value="Inferencers" style="shape=step;perimeter=stepPerimeter;whiteSpace=wrap;html=1;fixedSize=1;fillColor=#ffe6cc;strokeColor=#d79b00;direction=west;" parent="1" vertex="1">
          <mxGeometry x="678" y="280" width="110" height="60" as="geometry" />
        </mxCell>
      </root>
    </mxGraphModel>
  </diagram>
</mxfile>
